<svg width="24" height="24" viewBox="0 0 24 24" fill="none" xmlns="http://www.w3.org/2000/svg">
<path d="M18 12C14.69 12 12 14.69 12 18C12 18.34 12.04 18.67 12.09 19H6V20C6 20.55 5.55 21 5 21H4C3.45 21 3 20.55 3 20V12L5.08 6C5.28 5.42 5.84 5 6.5 5H17.5C18.16 5 18.72 5.42 18.92 6L21 12V12.81C20.12 12.3 19.09 12 18 12ZM17.5 6.5H6.5L5 11H19L17.5 6.5ZM5 14.5C5 15.33 5.67 16 6.5 16C7.33 16 8 15.33 8 14.5C8 13.67 7.33 13 6.5 13C5.67 13 5 13.67 5 14.5Z" fill="#67718E"/>
<path d="M17 17V14H19V17H22V19H19V22H17V19H14V17H17Z" fill="#67718E"/>
</svg>
