<svg width="24" height="24" viewBox="0 0 24 24" fill="none" xmlns="http://www.w3.org/2000/svg">
<path d="M21.5245 10.7781L13.2141 2.49879C12.5133 1.80053 11.512 1.80053 10.8111 2.49879L2.50075 10.7781C1.79988 11.4763 1.79988 12.4739 2.50075 13.1721L10.8111 21.4514C11.512 22.1497 12.5133 22.1497 13.2141 21.4514L21.5245 13.1721C22.1253 12.4739 22.1253 11.4763 21.5245 10.7781ZM12.4751 17.4751H10.9751V15.9751H12.4751V17.4751ZM13.602 12.2762C13.3165 12.4928 13.0373 12.7047 12.8751 12.9751C12.5751 13.3751 12.5751 13.8751 12.5751 14.3751H10.9751C10.9751 13.5751 10.9751 12.8751 11.2751 12.3751C11.4873 12.0214 11.8997 11.7678 12.2644 11.5435C12.4153 11.4507 12.558 11.3629 12.6751 11.2751C13.8751 10.1751 13.5751 8.5751 11.8751 8.4751C11.0751 8.4751 10.3751 9.1751 10.3751 9.9751H8.9751C8.9751 8.2751 10.2751 6.9751 11.9751 6.9751C14.6751 6.9751 15.8751 9.6751 14.2751 11.6751C14.0914 11.9047 13.8444 12.0922 13.602 12.2762Z" fill="#67718E"/>
</svg>
