<svg width="24" height="24" viewBox="0 0 24 24" fill="none" xmlns="http://www.w3.org/2000/svg">
<path d="M20.6192 21.6H3.38192C3.33251 21.6 3.29172 21.5645 3.28492 21.5168L1.50172 9.71364C1.49265 9.65318 1.53889 9.6 1.59917 9.6H22.402C22.4623 9.6 22.5085 9.65318 22.4994 9.71364L20.7167 21.5168C20.7076 21.5645 20.6668 21.6 20.6192 21.6Z" fill="#D0D3DD"/>
<path d="M11.9997 12.9C11.6684 12.9 11.3997 13.1686 11.3997 13.5V16.2H10.8198C10.4454 16.2 10.2347 16.6307 10.4646 16.9263L11.5261 18.2911C11.7663 18.5999 12.2331 18.5999 12.4733 18.2911L13.5349 16.9263C13.7648 16.6307 13.5541 16.2 13.1796 16.2H12.5997V13.5C12.5997 13.1686 12.3311 12.9 11.9997 12.9Z" fill="#8992A9"/>
<path d="M21.6 9.6V4.37688C21.6 4.23118 21.469 4.11419 21.3058 4.11419H9.47999C9.37487 4.11419 9.27935 4.06576 9.22703 3.98691L8.24639 2.52728C8.19359 2.44843 8.09615 2.4 7.99295 2.4H2.69615C2.53295 2.4 2.39999 2.51699 2.39999 2.6627V9.6H21.6Z" fill="#ACB2C3"/>
<path d="M4.20001 9.59956H19.8V7.49956C19.8 7.33388 19.6657 7.19956 19.5 7.19956H4.50001C4.33433 7.19956 4.20001 7.33388 4.20001 7.49956V9.59956Z" fill="#F3F4F6"/>
</svg>
