<svg xmlns="http://www.w3.org/2000/svg" width="24" height="24" viewBox="0 0 24 24">
    <path
        d="M 22 6 L 22 22 C 22 22.550781 21.550781 23 21 23 L 3 23 C 2.449219 23 2 22.550781 2 22 L 2 6 C 2.550781 6 3 5.550781 3 5 C 3 4.449219 2.550781 4 2 4 L 2 2 C 2 1.449219 2.449219 1 3 1 L 21 1 C 21.550781 1 22 1.449219 22 2 L 22 4 C 21.449219 4 21 4.449219 21 5 C 21 5.550781 21.449219 6 22 6 Z M 6 9 C 5.449219 9 5 9.449219 5 10 C 5 10.550781 5.449219 11 6 11 L 18 11 C 18.550781 11 19 10.550781 19 10 C 19 9.449219 18.550781 9 18 9 Z M 5.5 4.5 C 5.222656 4.5 5 4.722656 5 5 C 5 5.277344 5.222656 5.5 5.5 5.5 L 7.5 5.5 C 7.777344 5.5 8 5.277344 8 5 C 8 4.722656 7.777344 4.5 7.5 4.5 Z M 11 4.5 C 10.722656 4.5 10.5 4.722656 10.5 5 C 10.5 5.277344 10.722656 5.5 11 5.5 L 13 5.5 C 13.277344 5.5 13.5 5.277344 13.5 5 C 13.5 4.722656 13.277344 4.5 13 4.5 Z M 16.5 4.5 C 16.222656 4.5 16 4.722656 16 5 C 16 5.277344 16.222656 5.5 16.5 5.5 L 18.5 5.5 C 18.777344 5.5 19 5.277344 19 5 C 19 4.722656 18.777344 4.5 18.5 4.5 Z M 6 13 C 5.449219 13 5 13.449219 5 14 C 5 14.550781 5.449219 15 6 15 L 18 15 C 18.550781 15 19 14.550781 19 14 C 19 13.449219 18.550781 13 18 13 Z M 6 17 C 5.449219 17 5 17.449219 5 18 C 5 18.550781 5.449219 19 6 19 L 12 19 C 12.550781 19 13 18.550781 13 18 C 13 17.449219 12.550781 17 12 17 Z M 6 17 " />
</svg>