<svg width="24" height="24" viewBox="0 0 24 24" fill="none" xmlns="http://www.w3.org/2000/svg">
<path d="M19 4H14.82C14.4 2.84 13.3 2 12 2C10.7 2 9.6 2.84 9.18 4H5C3.89543 4 3 4.89543 3 6V20C3 21.1046 3.89543 22 5 22H19C20.1046 22 21 21.1046 21 20V6C21 4.89543 20.1046 4 19 4ZM12 4C12.5523 4 13 4.44772 13 5C13 5.55228 12.5523 6 12 6C11.4477 6 11 5.55228 11 5C11 4.44772 11.4477 4 12 4Z" fill="#67718E"/>
<path d="M12.0001 11.8521L14.1214 9.73082L15.5356 11.145L13.4143 13.2664L15.5356 15.3877L14.1214 16.8019L12.0001 14.6806L9.8788 16.8019L8.46458 15.3877L10.5859 13.2664L8.46458 11.145L9.8788 9.73082L12.0001 11.8521Z" fill="#E7E9EE"/>
</svg>
