<svg width="24" height="24" viewBox="0 0 24 24" fill="none" xmlns="http://www.w3.org/2000/svg">
<path d="M3.29289 3.29289C3.48043 3.10536 3.73478 3 4 3H7.5C7.76522 3 8.01957 3.10536 8.20711 3.29289C8.39464 3.48043 8.5 3.73478 8.5 4C8.5 5.25 8.7 6.45 9.07 7.57C9.18 7.92 9.1 8.31 8.82 8.57L6.62 10.78C8.06 13.62 10.38 15.93 13.21 17.37L15.41 15.17C15.69 14.9 16.08 14.82 16.43 14.93C17.55 15.3 18.75 15.5 20 15.5C20.2652 15.5 20.5196 15.6054 20.7071 15.7929C20.8946 15.9804 21 16.2348 21 16.5V20C21 20.2652 20.8946 20.5196 20.7071 20.7071C20.5196 20.8946 20.2652 21 20 21C15.4913 21 11.1673 19.2089 7.97918 16.0208C4.79107 12.8327 3 8.50868 3 4C3 3.73478 3.10536 3.48043 3.29289 3.29289Z" fill="#67718E"/>
<path d="M19.8947 3L21 4.10526L18.6053 6.5L21 8.89474L19.8947 10L17.5 7.60526L15.1053 10L14 8.89474L16.3947 6.5L14 4.10526L15.1053 3L17.5 5.39474L19.8947 3Z" fill="#67718E"/>
</svg>
