<svg
  width="24"
  height="24"
  viewBox="0 0 24 24"
  fill="none"
  xmlns="http://www.w3.org/2000/svg"
>
  <path
    d="M12 7C10.9 7 10 7.9 10 9C10 10.1 10.9 11 12 11C13.1 11 14 10.1 14 9C14 7.9 13.1 7 12 7ZM6 17C7.1 17 8 16.1 8 15C8 13.9 7.1 13 6 13C4.9 13 4 13.9 4 15C4 16.1 4.9 17 6 17ZM10 15C10 13.9 10.9 13 12 13C13.1 13 14 13.9 14 15C14 16.1 13.1 17 12 17C10.9 17 10 16.1 10 15ZM20 9C20 10.1 19.1 11 18 11C16.9 11 16 10.1 16 9C16 7.9 16.9 7 18 7C19.1 7 20 7.9 20 9ZM18 13C16.9 13 16 13.9 16 15C16 16.1 16.9 17 18 17C19.1 17 20 16.1 20 15C20 13.9 19.1 13 18 13ZM4 9C4 7.9 4.9 7 6 7C7.1 7 8 7.9 8 9C8 10.1 7.1 11 6 11C4.9 11 4 10.1 4 9Z"
    fill="#67718E"
  />
</svg>
