<svg width="24" height="24" viewBox="0 0 24 24" fill="none" xmlns="http://www.w3.org/2000/svg">
<g id="time / timer_stop">
<path id="Shape" d="M16 1H10V3H16V1ZM2.75 5.27L5.5 8.03C4.55 9.45 4 11.16 4 13C4 17.9706 8.02944 22 13 22C14.84 22 16.55 21.45 18 20.5L20.5 23L21.75 21.73L14.04 14L4 4L2.75 5.27ZM13 20C9.13401 20 6 16.866 6 13C6 11.72 6.35 10.5 6.95 9.5L16.5 19.04C15.5 19.65 14.28 20 13 20ZM14 8V11.44L12 9.44V8H14ZM18.62 5.97L20.04 4.55L21.45 5.97L20.03 7.39C21.26 8.93 22 10.88 22 13C22 14.83 21.45 16.53 20.5 17.94L19.06 16.5C19.65 15.47 20 14.27 20 13C20 9.13401 16.866 6 13 6C11.73 6 10.53 6.35 9.5 6.94L8.05 5.5C9.47 4.55 11.17 4 13 4C15.12 4 17.07 4.74 18.62 5.97Z" fill="#67718E"/>
</g>
</svg>
