<svg width="24" height="24" viewBox="0 0 24 24" fill="none" xmlns="http://www.w3.org/2000/svg">
<path d="M6 3C7.30585 3 8.41406 3.83532 8.82617 5H17C18.1 5 19.0419 5.39147 19.8252 6.1748C20.6085 6.95814 21 7.9 21 9C21 10.1 20.6085 11.0419 19.8252 11.8252C19.0419 12.6085 18.1 13 17 13H7C6.45 13 5.97956 13.1962 5.58789 13.5879C5.19622 13.9796 5 14.45 5 15C5 15.55 5.19622 16.0204 5.58789 16.4121C5.97956 16.8038 6.45 17 7 17H15C15 15.8954 15.8954 15 17 15H19C20.1046 15 21 15.8954 21 17V19C21 20.1046 20.1046 21 19 21H17C15.9643 21 15.113 20.2128 15.0107 19.2041L15 19H7C5.9 19 4.95814 18.6085 4.1748 17.8252C3.39147 17.0419 3 16.1 3 15C3 13.9 3.39147 12.9581 4.1748 12.1748C4.95814 11.3915 5.9 11 7 11H17C17.55 11 18.0204 10.8038 18.4121 10.4121C18.8038 10.0204 19 9.55 19 9C19 8.45 18.8038 7.97956 18.4121 7.58789C18.0204 7.19622 17.55 7 17 7H8.82617C8.41406 8.16468 7.30585 9 6 9C4.34315 9 3 7.65685 3 6C3 4.34315 4.34315 3 6 3ZM6 5C5.44772 5 5 5.44772 5 6C5 6.55228 5.44772 7 6 7C6.55228 7 7 6.55228 7 6C7 5.44772 6.55228 5 6 5Z" fill="#67718E"/>
</svg>
