<svg width="24" height="24" viewBox="0 0 24 24" fill="none" xmlns="http://www.w3.org/2000/svg">
<path d="M17.2381 2C14.6095 2 12.4762 4.13333 12.4762 6.7619V8.66667H3.90476C2.85714 8.66667 2 9.51429 2 10.5714V20.0952C2 21.1524 2.85714 22 3.90476 22H15.3333C16.3905 22 17.2381 21.1524 17.2381 20.0952V10.5714C17.2381 9.52381 16.3905 8.66667 15.3333 8.66667H14.381V6.7619C14.381 5.18095 15.6571 3.90476 17.2381 3.90476C18.819 3.90476 20.0952 5.18095 20.0952 6.7619V8.66667H22V6.7619C22 4.13333 19.8667 2 17.2381 2ZM9.61905 13.4286C10.6667 13.4286 11.5238 14.2762 11.5238 15.3333C11.5238 16.3905 10.6762 17.2381 9.61905 17.2381C8.57143 17.2381 7.71429 16.3905 7.71429 15.3333C7.71429 14.2857 8.57143 13.4286 9.61905 13.4286Z" fill="black"/>
</svg>
