<svg width="24" height="24" viewBox="0 0 24 24" fill="none" xmlns="http://www.w3.org/2000/svg">
<g id="Union">
<path d="M5.02889 7.29349L2 4.26043L3.23748 3L20.8096 20.5964L19.5722 21.8568L16.2795 18.5596C15.7394 18.8583 15.1182 19.0283 14.4573 19.0283H8.80025C6.71739 19.0283 5.02889 17.3398 5.02889 15.2569V7.29349Z" fill="#67718E"/>
<path d="M22 7.7142C22 6.66764 21.1514 5.82852 20.1143 5.82852H8.38917L18.2119 15.615C18.223 15.4972 18.2286 15.3777 18.2286 15.2569V12.4284H20.1143C21.1558 12.4284 22 11.5841 22 10.5427V7.7142ZM18.2286 7.7142H20.1143V10.5427H18.2286V7.7142Z" fill="#67718E"/>
</g>
</svg>
