<svg width="24" height="24" viewBox="0 0 24 24" fill="none" xmlns="http://www.w3.org/2000/svg">
<path d="M10.675 14H7V12H12.125C11.825 12.2833 11.5542 12.5917 11.3125 12.925C11.0708 13.2583 10.8583 13.6167 10.675 14Z" fill="#67718E"/>
<path d="M10.075 18H7V16H10.075C10.025 16.3333 10 16.6667 10 17C10 17.3333 10.025 17.6667 10.075 18Z" fill="#67718E"/>
<path d="M3.5875 21.4125C3.97917 21.8042 4.45 22 5 22H12.125C11.825 21.7167 11.5542 21.4083 11.3125 21.075C11.0708 20.7417 10.8583 20.3833 10.675 20H5V4H12V9H17V10C17.35 10 17.6917 10.025 18.025 10.075C18.3583 10.125 18.6833 10.2 19 10.3V8L13 2H5C4.45 2 3.97917 2.19583 3.5875 2.5875C3.19583 2.97917 3 3.45 3 4V20C3 20.55 3.19583 21.0208 3.5875 21.4125Z" fill="#67718E"/>
<path d="M22 17C22 19.765 19.765 22 17 22C14.235 22 12 19.765 12 17C12 14.235 14.235 12 17 12C19.765 12 22 14.235 22 17ZM17 16.295L15.205 14.5L14.5 15.205L16.295 17L14.5 18.795L15.205 19.5L17 17.705L18.795 19.5L19.5 18.795L17.705 17L19.5 15.205L18.795 14.5L17 16.295Z" fill="#67718E"/>
</svg>
