<svg width="24" height="24" viewBox="0 0 24 24" fill="none" xmlns="http://www.w3.org/2000/svg">
<path d="M3.81818 4.5H16.5455V8.58632H19.2727L22 12.2227V16.7681H20.1818C20.1818 18.2744 18.9608 19.4954 17.4545 19.4954C15.9483 19.4954 14.7273 18.2744 14.7273 16.7681H9.27273C9.27273 18.2744 8.05169 19.4954 6.54545 19.4954C5.03922 19.4954 3.81818 18.2744 3.81818 16.7681H2V6.31818C2 5.31403 2.81403 4.5 3.81818 4.5ZM18.8182 9.94995H16.5455V12.2227H20.6091L18.8182 9.94995ZM6.54545 15.4045C5.79234 15.4045 5.18182 16.015 5.18182 16.7681C5.18182 17.5212 5.79234 18.1318 6.54545 18.1318C7.29857 18.1318 7.90909 17.5212 7.90909 16.7681C7.90909 16.015 7.29857 15.4045 6.54545 15.4045ZM18.8182 16.7681C18.8182 16.015 18.2077 15.4045 17.4545 15.4045C16.7014 15.4045 16.0909 16.015 16.0909 16.7681C16.0909 17.5212 16.7014 18.1318 17.4545 18.1318C18.2077 18.1318 18.8182 17.5212 18.8182 16.7681Z" fill="#67718E"/>
</svg>
