<svg width="24" height="24" viewBox="0 0 24 24" fill="none" xmlns="http://www.w3.org/2000/svg">
<path d="M3.81818 5H16.5455V8.63636H19.2727L22 12.2727V16.8182H20.1818C20.1818 18.3244 18.9608 19.5455 17.4545 19.5455C15.9483 19.5455 14.7273 18.3244 14.7273 16.8182H9.27273C9.27273 18.3244 8.05169 19.5455 6.54545 19.5455C5.03922 19.5455 3.81818 18.3244 3.81818 16.8182H2V6.81818C2 5.81403 2.81403 5 3.81818 5ZM10.1818 6.81818V9.54545H4.72727V11.3636H10.1818V14.0909L13.8182 10.4545L10.1818 6.81818ZM18.8182 10H16.5455V12.2727H20.6091L18.8182 10ZM6.54545 15.4545C5.79234 15.4545 5.18182 16.0651 5.18182 16.8182C5.18182 17.5713 5.79234 18.1818 6.54545 18.1818C7.29857 18.1818 7.90909 17.5713 7.90909 16.8182C7.90909 16.0651 7.29857 15.4545 6.54545 15.4545ZM18.8182 16.8182C18.8182 16.0651 18.2077 15.4545 17.4545 15.4545C16.7014 15.4545 16.0909 16.0651 16.0909 16.8182C16.0909 17.5713 16.7014 18.1818 17.4545 18.1818C18.2077 18.1818 18.8182 17.5713 18.8182 16.8182Z" fill="#67718E"/>
</svg>
