<svg width="24" height="24" viewBox="0 0 24 24" fill="none" xmlns="http://www.w3.org/2000/svg">
<path d="M2.4358 9.18194C1.85473 9.76301 1.85473 10.7051 2.4358 11.2862L7.45358 16.304C8.0123 16.8627 8.91816 16.8627 9.47688 16.304C10.0356 15.7452 10.0356 14.8394 9.47688 14.2807L6.86097 11.6647H16.2772C17.857 11.6647 19.1386 12.9465 19.1386 14.5274C19.1386 16.1076 17.858 17.3891 16.2789 17.39L13.415 17.3917C12.6248 17.3922 11.9847 18.0331 11.9851 18.8232C11.9856 19.6134 12.6265 20.2535 13.4167 20.2531L16.2806 20.2514C19.4404 20.2495 22 17.6861 22 14.5274C22 11.3673 19.4383 8.80337 16.2772 8.80337H6.86097L9.47688 6.18746C10.0356 5.62874 10.0356 4.72288 9.47688 4.16416C8.91816 3.60544 8.0123 3.60544 7.45358 4.16416L2.4358 9.18194Z" fill="#67718E"/>
</svg>
