<svg width="268" height="270" viewBox="0 0 268 270" fill="none" xmlns="http://www.w3.org/2000/svg">
<mask id="mask0_1368_40372" style="mask-type:alpha" maskUnits="userSpaceOnUse" x="34" y="25" width="212" height="221">
<path d="M55.6888 228.976C29.2576 205.065 27.1677 164.251 51.0787 137.819L133.507 46.4781C157.418 20.0469 198.233 17.957 224.664 41.8066C251.095 65.7176 253.185 106.532 229.336 132.963L146.846 224.305C122.996 250.797 82.1814 252.887 55.6888 228.976Z" fill="#ECF6FF"/>
</mask>
<g mask="url(#mask0_1368_40372)">
<path d="M58.2713 229.46C31.7786 205.549 29.7502 164.734 53.5997 138.303L136.09 46.9615C160.001 20.5303 200.815 18.4404 227.247 42.29C253.678 66.201 255.768 107.016 231.918 133.447L149.428 224.788C125.517 251.281 84.7025 253.371 58.2713 229.46Z" fill="#ECF6FF"/>
<path d="M107.691 205.364C137.498 205.364 161.66 201.594 161.66 196.943C161.66 192.292 137.498 188.522 107.691 188.522C77.8853 188.522 53.7227 192.292 53.7227 196.943C53.7227 201.594 77.8853 205.364 107.691 205.364Z" fill="#34233C"/>
<path d="M76.7729 54.8295H152.993C158.279 54.8295 163.32 56.9194 167.069 60.6689L201 94.5992C208.745 102.344 221.345 102.344 229.152 94.5992C232.901 90.8496 237.942 88.7597 243.228 88.7597H299.102V9.83496H97.8564L76.7729 54.8295Z" fill="#D2ECFF"/>
<path d="M188.952 38.5405C190.004 38.5405 190.857 37.6874 190.857 36.635C190.857 35.5826 190.004 34.7295 188.952 34.7295C187.9 34.7295 187.046 35.5826 187.046 36.635C187.046 37.6874 187.9 38.5405 188.952 38.5405Z" fill="white"/>
<path d="M200.631 82.7973C201.683 82.7973 202.537 81.9442 202.537 80.8918C202.537 79.8395 201.683 78.9863 200.631 78.9863C199.579 78.9863 198.726 79.8395 198.726 80.8918C198.726 81.9442 199.579 82.7973 200.631 82.7973Z" fill="white"/>
<path d="M225.156 55.8745C226.209 55.8745 227.062 55.0214 227.062 53.969C227.062 52.9166 226.209 52.0635 225.156 52.0635C224.104 52.0635 223.251 52.9166 223.251 53.969C223.251 55.0214 224.104 55.8745 225.156 55.8745Z" fill="white"/>
<path d="M86.5466 229.951C87.599 229.951 88.4521 229.098 88.4521 228.046C88.4521 226.994 87.599 226.14 86.5466 226.14C85.4942 226.14 84.6411 226.994 84.6411 228.046C84.6411 229.098 85.4942 229.951 86.5466 229.951Z" fill="white"/>
<path d="M50.5876 184.895C51.64 184.895 52.4931 184.042 52.4931 182.99C52.4931 181.938 51.64 181.084 50.5876 181.084C49.5353 181.084 48.6821 181.938 48.6821 182.99C48.6821 184.042 49.5353 184.895 50.5876 184.895Z" fill="white"/>
<path d="M173.831 176.905C174.883 176.905 175.736 176.052 175.736 174.999C175.736 173.947 174.883 173.094 173.831 173.094C172.778 173.094 171.925 173.947 171.925 174.999C171.925 176.052 172.778 176.905 173.831 176.905Z" fill="white"/>
<path d="M119.432 228.599C120.484 228.599 121.337 227.746 121.337 226.694C121.337 225.641 120.484 224.788 119.432 224.788C118.379 224.788 117.526 225.641 117.526 226.694C117.526 227.746 118.379 228.599 119.432 228.599Z" fill="white"/>
<path d="M150.904 66.6313C151.956 66.6313 152.809 65.7782 152.809 64.7258C152.809 63.6734 151.956 62.8203 150.904 62.8203C149.851 62.8203 148.998 63.6734 148.998 64.7258C148.998 65.7782 149.851 66.6313 150.904 66.6313Z" fill="white"/>
<path d="M205.057 165.041C216.361 165.041 225.526 155.877 225.526 144.573C225.526 133.268 216.361 124.104 205.057 124.104C193.752 124.104 184.588 133.268 184.588 144.573C184.588 155.877 193.752 165.041 205.057 165.041Z" fill="#F39719"/>
<path d="M205.733 166.086C217.038 166.086 226.202 156.922 226.202 145.617C226.202 134.313 217.038 125.149 205.733 125.149C194.428 125.149 185.264 134.313 185.264 145.617C185.264 156.922 194.428 166.086 205.733 166.086Z" fill="#FFC347"/>
<path d="M194.484 156.62C196.521 156.62 198.172 154.969 198.172 152.932C198.172 150.895 196.521 149.244 194.484 149.244C192.447 149.244 190.796 150.895 190.796 152.932C190.796 154.969 192.447 156.62 194.484 156.62Z" fill="#F39719"/>
<path d="M194.607 155.821C196.644 155.821 198.295 154.17 198.295 152.133C198.295 150.096 196.644 148.445 194.607 148.445C192.57 148.445 190.919 150.096 190.919 152.133C190.919 154.17 192.57 155.821 194.607 155.821Z" fill="url(#paint0_linear_1368_40372)"/>
<path d="M189.137 148.998C189.782 148.998 190.305 148.475 190.305 147.83C190.305 147.185 189.782 146.662 189.137 146.662C188.492 146.662 187.969 147.185 187.969 147.83C187.969 148.475 188.492 148.998 189.137 148.998Z" fill="#F39719"/>
<path d="M189.198 148.752C189.843 148.752 190.366 148.229 190.366 147.584C190.366 146.939 189.843 146.417 189.198 146.417C188.553 146.417 188.03 146.939 188.03 147.584C188.03 148.229 188.553 148.752 189.198 148.752Z" fill="url(#paint1_linear_1368_40372)"/>
<path d="M200.569 158.218C201.214 158.218 201.737 157.695 201.737 157.05C201.737 156.405 201.214 155.883 200.569 155.883C199.924 155.883 199.401 156.405 199.401 157.05C199.401 157.695 199.924 158.218 200.569 158.218Z" fill="#F39719"/>
<path d="M200.631 157.973C201.276 157.973 201.799 157.45 201.799 156.805C201.799 156.16 201.276 155.637 200.631 155.637C199.986 155.637 199.463 156.16 199.463 156.805C199.463 157.45 199.986 157.973 200.631 157.973Z" fill="url(#paint2_linear_1368_40372)"/>
<path d="M201.922 153.977C203.076 153.977 204.012 153.042 204.012 151.887C204.012 150.733 203.076 149.797 201.922 149.797C200.768 149.797 199.832 150.733 199.832 151.887C199.832 153.042 200.768 153.977 201.922 153.977Z" fill="#F39719"/>
<path d="M201.983 153.485C203.138 153.485 204.073 152.55 204.073 151.396C204.073 150.241 203.138 149.306 201.983 149.306C200.829 149.306 199.894 150.241 199.894 151.396C199.894 152.55 200.829 153.485 201.983 153.485Z" fill="url(#paint3_linear_1368_40372)"/>
<path d="M200.938 143.835C202.092 143.835 203.028 142.899 203.028 141.745C203.028 140.591 202.092 139.655 200.938 139.655C199.784 139.655 198.848 140.591 198.848 141.745C198.848 142.899 199.784 143.835 200.938 143.835Z" fill="#F39719"/>
<path d="M201.061 143.405C202.215 143.405 203.151 142.469 203.151 141.315C203.151 140.161 202.215 139.225 201.061 139.225C199.907 139.225 198.971 140.161 198.971 141.315C198.971 142.469 199.907 143.405 201.061 143.405Z" fill="url(#paint4_linear_1368_40372)"/>
<path d="M181.883 54.4713L163.547 61.76L168.292 73.6985L186.629 66.4098L181.883 54.4713Z" fill="#FFC347"/>
<path d="M186.295 52.7465L181.897 54.4949L186.643 66.4334L191.041 64.685L186.295 52.7465Z" fill="#F39719"/>
<path d="M180.954 52.1219L162.218 59.5696L163.149 61.9116L181.885 54.4639L180.954 52.1219Z" fill="#F39719"/>
<path d="M185.726 50.223L180.928 52.1304L181.859 54.4724L186.657 52.5651L185.726 50.223Z" fill="#34233C"/>
<path d="M183.23 62.6713L178.26 64.6467L179.259 67.1601L184.229 65.1847L183.23 62.6713Z" fill="white"/>
<path d="M237.081 105.295C238.134 105.295 238.987 104.442 238.987 103.389C238.987 102.337 238.134 101.484 237.081 101.484C236.029 101.484 235.176 102.337 235.176 103.389C235.176 104.442 236.029 105.295 237.081 105.295Z" fill="white"/>
<path d="M205.856 115.867C206.908 115.867 207.761 115.014 207.761 113.962C207.761 112.909 206.908 112.056 205.856 112.056C204.803 112.056 203.95 112.909 203.95 113.962C203.95 115.014 204.803 115.867 205.856 115.867Z" fill="white"/>
<path d="M169.282 127.73C170.335 127.73 171.188 126.877 171.188 125.825C171.188 124.773 170.335 123.919 169.282 123.919C168.23 123.919 167.377 124.773 167.377 125.825C167.377 126.877 168.23 127.73 169.282 127.73Z" fill="white"/>
<path d="M177.826 88.145C178.879 88.145 179.732 87.2919 179.732 86.2395C179.732 85.1871 178.879 84.334 177.826 84.334C176.774 84.334 175.921 85.1871 175.921 86.2395C175.921 87.2919 176.774 88.145 177.826 88.145Z" fill="white"/>
</g>
<path d="M105.294 58.6406C111.88 58.6406 117.219 53.3017 117.219 46.7158C117.219 40.1299 111.88 34.791 105.294 34.791C98.7085 34.791 93.3696 40.1299 93.3696 46.7158C93.3696 53.3017 98.7085 58.6406 105.294 58.6406Z" fill="#FF5753"/>
<path d="M97.1192 46.9001C97.9679 46.9001 98.6559 46.2121 98.6559 45.3634C98.6559 44.5147 97.9679 43.8267 97.1192 43.8267C96.2705 43.8267 95.5825 44.5147 95.5825 45.3634C95.5825 46.2121 96.2705 46.9001 97.1192 46.9001Z" fill="#DD3C3C"/>
<path d="M102.959 47.5761C103.502 47.5761 103.942 47.1358 103.942 46.5926C103.942 46.0495 103.502 45.6091 102.959 45.6091C102.415 45.6091 101.975 46.0495 101.975 46.5926C101.975 47.1358 102.415 47.5761 102.959 47.5761Z" fill="#DD3C3C"/>
<path d="M95.521 54.2149C95.521 54.2149 107.2 51.4489 111.994 48.6213C111.994 48.6213 104.495 53.2929 95.521 56.1204V54.2149Z" fill="white"/>
<path d="M94.2302 51.1413C94.2302 51.1413 85.7477 55.7514 95.5211 54.2762C95.5211 54.2762 103.389 53.5386 117.588 45.4863C117.588 45.4863 126.132 40.1386 116.359 42.3514" stroke="#34233C" stroke-width="0.614679" stroke-miterlimit="10"/>
<path d="M75.9126 141.684C88.4393 141.684 98.5943 131.529 98.5943 119.002C98.5943 106.475 88.4393 96.3203 75.9126 96.3203C63.3859 96.3203 53.231 106.475 53.231 119.002C53.231 131.529 63.3859 141.684 75.9126 141.684Z" fill="#34233C"/>
<path d="M177.827 133.201L158.772 108.061L109.536 136.213H96.4434L93.37 131.849H52.6782V158.342H74.5608V203.643C95.5828 206.778 116.974 206.901 137.996 204.012L147.646 202.66L147.031 158.403L177.827 133.201Z" fill="#0072F5"/>
<path d="M76.0973 75.1139C64.7872 88.5139 73.7 109.352 91.2184 109.966C91.5257 109.966 91.7716 109.966 92.0789 109.966C105.663 109.966 116.666 98.9634 116.666 85.379C116.666 85.379 114.453 71.4258 105.725 70.6267L89.4973 68.5368C85.133 67.9836 80.7688 69.6433 77.9413 73.024L76.0973 75.1139Z" fill="#34233C"/>
<path d="M158.772 108.061L164.795 103.389L141.806 86.9771L131.173 89.4359H119.186L117.772 86.9771L121.891 82.6129L117.772 79.601H101.238C99.9468 79.601 98.9019 78.556 98.9019 77.2652C98.9019 75.9744 99.9468 74.9294 101.238 74.9294H138.426C139.594 74.9294 140.761 75.1753 141.868 75.5441L182.191 91.2184C187.477 93.3083 191.227 98.1028 191.903 103.696C192.517 108.614 190.673 113.47 187.108 116.789L174.446 128.529L158.772 108.061Z" fill="#D3897D"/>
<path d="M84.6413 111.626C88.715 111.626 92.0174 108.323 92.0174 104.249C92.0174 100.176 88.715 96.8733 84.6413 96.8733C80.5676 96.8733 77.2651 100.176 77.2651 104.249C77.2651 108.323 80.5676 111.626 84.6413 111.626Z" fill="#D3897D"/>
<path d="M100.377 141.684H107.815C112.425 141.684 116.113 137.934 116.113 133.385V111.626L92.0791 109.966V133.385C92.0791 137.934 95.7672 141.684 100.377 141.684Z" fill="#D3897D"/>
<path d="M99.701 124.411L121.399 111.872C125.825 109.29 127.362 103.635 124.78 99.2093L117.219 86.1781C111.318 75.913 98.1643 72.4093 87.9606 78.3102L76.835 84.7644L99.701 124.411Z" fill="#D3897D"/>
<path d="M117.711 113.961C117.711 113.961 112.117 116.85 106.216 117.711L116.051 119.678V115.621L117.711 113.961Z" fill="#C1736B"/>
<path d="M101.238 74.991C101.238 74.991 107.138 100.746 86.6696 104.25L84.7026 101.852L101.238 74.991Z" fill="#C1736B"/>
<path d="M100.807 71.3643C100.807 71.3643 103.143 96.0129 84.7028 101.852L72.4707 83.4734L87.8991 72.778L100.807 71.3643Z" fill="#34233C"/>
<path d="M112.671 79.6011H102.528L115.805 83.658L112.671 79.6011Z" fill="#C1736B"/>
<path d="M117.772 86.9771L119.186 89.4973H120.661L118.449 86.2395L117.772 86.9771Z" fill="#C1736B"/>
<path d="M74.5605 158.464V203.643L84.6413 204.627L98.4716 168.238L92.0789 157.604L74.5605 158.464Z" fill="#005FCC"/>
<path d="M146.97 158.341L147.646 202.66L137.996 203.95L146.97 158.341Z" fill="#005FCC"/>
<path d="M85.9319 169.16L86.1163 169.344C86.7925 170.02 87.9604 170.02 88.698 169.344L109.413 148.629C110.089 147.953 110.089 146.785 109.413 146.048L109.228 145.863C108.552 145.187 107.384 145.187 106.647 145.863L85.9319 166.578C85.2558 167.316 85.2558 168.484 85.9319 169.16Z" fill="#FF5753"/>
<path d="M37.3111 158.341H63.2505V131.849H34.1147L37.3111 158.341Z" fill="#C1736B"/>
<path d="M108.183 158.649V149.428C108.183 147.523 106.647 146.048 104.803 146.048H80.277C79.9082 146.048 79.6009 145.986 79.2936 145.863L35.7128 132.279C34.7293 131.972 33.6229 131.787 32.578 131.787C26.8 131.787 22.1284 136.459 22.1284 142.237V146.232C22.1284 152.871 27.5376 158.28 34.1761 158.28H74.1303C74.4376 158.28 74.7449 158.341 74.9908 158.403L89.866 162.398L92.5706 165.164L90.1119 167.746L96.2587 168.975C97.0578 168.975 97.7954 168.729 98.4101 168.176L106.893 161.23C107.692 160.616 108.183 159.694 108.183 158.649Z" fill="#D3897D"/>
<path d="M89.8661 162.46L92.5707 165.226L91.2184 166.64L88.6982 163.812L89.8661 162.46Z" fill="#DD3C3C"/>
<path d="M164.795 103.389L169.282 108.061H158.771L164.795 103.389Z" fill="#C1736B"/>
<path d="M115.917 90.1277C116.161 90.0078 116.03 89.2439 115.626 88.4213C115.221 87.5988 114.696 87.0291 114.452 87.149C114.208 87.2688 114.339 88.0328 114.743 88.8553C115.148 89.6779 115.673 90.2475 115.917 90.1277Z" fill="#34233C"/>
<path d="M109.711 92.7764C109.955 92.6565 109.825 91.8925 109.42 91.07C109.016 90.2474 108.49 89.6778 108.246 89.7976C108.003 89.9175 108.133 90.6815 108.538 91.504C108.942 92.3265 109.468 92.8962 109.711 92.7764Z" fill="#34233C"/>
<path d="M92.5707 165.226L92.079 160.493L74.1304 158.341L89.8662 162.46L92.5707 165.226Z" fill="#C1736B"/>
<path opacity="0.55" d="M121.829 149.552C128.755 149.552 134.369 143.937 134.369 137.012C134.369 130.087 128.755 124.473 121.829 124.473C114.904 124.473 109.29 130.087 109.29 137.012C109.29 143.937 114.904 149.552 121.829 149.552Z" fill="#FEFEFE"/>
<path d="M104.065 137.012C104.065 146.847 111.994 154.776 121.829 154.776C131.664 154.776 139.593 146.847 139.593 137.012C139.593 127.177 131.664 119.248 121.829 119.248C112.056 119.248 104.065 127.239 104.065 137.012ZM109.29 137.012C109.29 130.066 114.945 124.473 121.829 124.473C128.775 124.473 134.369 130.128 134.369 137.012C134.369 143.958 128.714 149.551 121.829 149.551C114.883 149.613 109.29 143.958 109.29 137.012Z" fill="#FF5753"/>
<path opacity="0.55" d="M127.607 125.886L118.203 149.06C118.203 149.06 115.806 148.384 114.699 147.339L123.858 124.595C123.858 124.595 125.763 124.841 127.607 125.886Z" fill="#FEFEFE"/>
<path d="M155.944 121.215C157.166 121.215 158.157 120.224 158.157 119.002C158.157 117.78 157.166 116.789 155.944 116.789C154.722 116.789 153.731 117.78 153.731 119.002C153.731 120.224 154.722 121.215 155.944 121.215Z" fill="#FEFEFE"/>
<path d="M145.433 143.896C146.655 143.896 147.646 142.906 147.646 141.684C147.646 140.461 146.655 139.471 145.433 139.471C144.211 139.471 143.22 140.461 143.22 141.684C143.22 142.906 144.211 143.896 145.433 143.896Z" fill="#FEFEFE"/>
<path d="M160.37 137.012C161.592 137.012 162.582 136.021 162.582 134.799C162.582 133.577 161.592 132.586 160.37 132.586C159.147 132.586 158.157 133.577 158.157 134.799C158.157 136.021 159.147 137.012 160.37 137.012Z" fill="#FEFEFE"/>
<path d="M134.43 166.762C135.652 166.762 136.643 165.772 136.643 164.55C136.643 163.327 135.652 162.337 134.43 162.337C133.208 162.337 132.217 163.327 132.217 164.55C132.217 165.772 133.208 166.762 134.43 166.762Z" fill="#FEFEFE"/>
<path d="M139.594 185.694C140.816 185.694 141.807 184.704 141.807 183.482C141.807 182.26 140.816 181.269 139.594 181.269C138.372 181.269 137.381 182.26 137.381 183.482C137.381 184.704 138.372 185.694 139.594 185.694Z" fill="#FEFEFE"/>
<path d="M115.806 173.094C117.028 173.094 118.018 172.103 118.018 170.881C118.018 169.659 117.028 168.668 115.806 168.668C114.584 168.668 113.593 169.659 113.593 170.881C113.593 172.103 114.584 173.094 115.806 173.094Z" fill="#FEFEFE"/>
<path d="M101.115 192.394C102.337 192.394 103.328 191.404 103.328 190.182C103.328 188.959 102.337 187.969 101.115 187.969C99.8926 187.969 98.9019 188.959 98.9019 190.182C98.9019 191.404 99.8926 192.394 101.115 192.394Z" fill="#FEFEFE"/>
<path d="M126.993 203.459C128.215 203.459 129.205 202.468 129.205 201.246C129.205 200.024 128.215 199.033 126.993 199.033C125.771 199.033 124.78 200.024 124.78 201.246C124.78 202.468 125.771 203.459 126.993 203.459Z" fill="#FEFEFE"/>
<path d="M83.3505 181.761C84.5727 181.761 85.5634 180.77 85.5634 179.548C85.5634 178.326 84.5727 177.335 83.3505 177.335C82.1284 177.335 81.1377 178.326 81.1377 179.548C81.1377 180.77 82.1284 181.761 83.3505 181.761Z" fill="#FEFEFE"/>
<path d="M83.6577 141.683C84.8798 141.683 85.8705 140.693 85.8705 139.471C85.8705 138.249 84.8798 137.258 83.6577 137.258C82.4355 137.258 81.4448 138.249 81.4448 139.471C81.4448 140.693 82.4355 141.683 83.6577 141.683Z" fill="#FEFEFE"/>
<path d="M70.6264 139.471C71.8485 139.471 72.8393 138.48 72.8393 137.258C72.8393 136.036 71.8485 135.045 70.6264 135.045C69.4043 135.045 68.4136 136.036 68.4136 137.258C68.4136 138.48 69.4043 139.471 70.6264 139.471Z" fill="#FEFEFE"/>
<defs>
<linearGradient id="paint0_linear_1368_40372" x1="193.918" y1="155.825" x2="195.243" y2="148.545" gradientUnits="userSpaceOnUse">
<stop stop-color="#FFB533"/>
<stop offset="1" stop-color="#FFC347"/>
</linearGradient>
<linearGradient id="paint1_linear_1368_40372" x1="188.969" y1="148.759" x2="189.387" y2="146.457" gradientUnits="userSpaceOnUse">
<stop stop-color="#FFB533"/>
<stop offset="1" stop-color="#FFC347"/>
</linearGradient>
<linearGradient id="paint2_linear_1368_40372" x1="200.4" y1="157.985" x2="200.818" y2="155.683" gradientUnits="userSpaceOnUse">
<stop stop-color="#FFB533"/>
<stop offset="1" stop-color="#FFC347"/>
</linearGradient>
<linearGradient id="paint3_linear_1368_40372" x1="201.597" y1="153.471" x2="202.337" y2="149.408" gradientUnits="userSpaceOnUse">
<stop stop-color="#FFB533"/>
<stop offset="1" stop-color="#FFC347"/>
</linearGradient>
<linearGradient id="paint4_linear_1368_40372" x1="200.645" y1="143.365" x2="201.385" y2="139.301" gradientUnits="userSpaceOnUse">
<stop stop-color="#FFB533"/>
<stop offset="1" stop-color="#FFC347"/>
</linearGradient>
</defs>
</svg>
