<svg width="24" height="24" viewBox="0 0 24 24" fill="none" xmlns="http://www.w3.org/2000/svg">
<path d="M20 11C20 11.7098 19.9074 12.3981 19.7337 13.0534C19.4942 13.0182 19.2492 13 19 13C16.2386 13 14 15.2386 14 18C14 18.2492 14.0182 18.4942 14.0534 18.7337C13.3981 18.9074 12.7098 19 12 19C7.584 19 4 15.416 4 11C4 6.584 7.584 3 12 3C16.416 3 20 6.584 20 11ZM15.6364 13.1818L12 7.36364L8.36364 13.1818H15.6364Z" fill="#67718E"/>
<path d="M22 17.818L18.818 14.636L17.7573 15.6967L19.0606 17L15.75 17V18.5L19.1967 18.5L17.7573 19.9393L18.818 21L22 17.818Z" fill="#67718E"/>
</svg>
