<svg width="24" height="24" viewBox="0 0 24 24" fill="none" xmlns="http://www.w3.org/2000/svg">
  <path d="M20 13.3414V7.5C20 7.12 19.79 6.79 19.47 6.62L11.57 2.18C11.41 2.06 11.21 2 11 2C10.79 2 10.59 2.06 10.43 2.18L2.53 6.62C2.21 6.79 2 7.12 2 7.5V16.5C2 16.88 2.21 17.21 2.53 17.38L10.43 21.82C10.59 21.94 10.79 22 11 22C11.21 22 11.41 21.94 11.57 21.82L12 21.5783V12.58L18 9.21V13C18.7013 13 19.3744 13.1203 20 13.3414ZM9.11 5.22L11 4.15L16.96 7.5L15 8.61L9.11 5.22ZM11 10.85L5.04 7.5L7.08 6.35L12.96 9.75L11 10.85ZM10 19.29L4 15.91V9.21L10 12.58V19.29Z" fill="#67718E"/>
  <path d="M16 17C16 17.5523 15.5523 18 15 18C14.4477 18 14 17.5523 14 17C14 16.4477 14.4477 16 15 16C15.5523 16 16 16.4477 16 17Z" fill="#67718E"/>
  <path d="M19 17C19 17.5523 18.5523 18 18 18C17.4477 18 17 17.5523 17 17C17 16.4477 17.4477 16 18 16C18.5523 16 19 16.4477 19 17Z" fill="#67718E"/>
  <path d="M21 18C21.5523 18 22 17.5523 22 17C22 16.4477 21.5523 16 21 16C20.4477 16 20 16.4477 20 17C20 17.5523 20.4477 18 21 18Z" fill="#67718E"/>
</svg>
