<svg width="24" height="24" viewBox="0 0 24 24" fill="none" xmlns="http://www.w3.org/2000/svg">
<g id="Property 1=crate">
<g id="Vector">
<path d="M20 6H4V18H20V6ZM10 9H14C14.5523 9 15 9.44772 15 10C15 10.5523 14.5523 11 14 11H10C9.44772 11 9 10.5523 9 10C9 9.44772 9.44772 9 10 9Z" fill="#67718E"/>
<path d="M2 4C2 3.44772 2.44772 3 3 3H21C21.5523 3 22 3.44772 22 4C22 4.55228 21.5523 5 21 5H3C2.44772 5 2 4.55228 2 4Z" fill="#67718E"/>
<path d="M2 20C2 19.4477 2.44772 19 3 19H21C21.5523 19 22 19.4477 22 20C22 20.5523 21.5523 21 21 21H3C2.44772 21 2 20.5523 2 20Z" fill="#67718E"/>
</g>
</g>
</svg>
