<svg
  width="24"
  height="24"
  viewBox="0 0 24 24"
  fill="none"
  xmlns="http://www.w3.org/2000/svg"
>
  <path
      d="M3.54737 13.7083L2.85263 12.3333H7.71579L7.16 10.9583H2.62105L1.92632 9.58333H9.15158L8.59579 8.20833H1.79663L1 6.83333H4.47368C4.47368 6.3471 4.66887 5.88079 5.01631 5.53697C5.36374 5.19315 5.83497 5 6.32632 5H17.4421V8.66667H20.2211L23 12.3333V16.9167H21.1474C21.1474 17.646 20.8546 18.3455 20.3334 18.8612C19.8123 19.3769 19.1054 19.6667 18.3684 19.6667C17.6314 19.6667 16.9246 19.3769 16.4034 18.8612C15.8823 18.3455 15.5895 17.646 15.5895 16.9167H11.8842C11.8842 17.646 11.5914 18.3455 11.0703 18.8612C10.5491 19.3769 9.84229 19.6667 9.10526 19.6667C8.36824 19.6667 7.6614 19.3769 7.14025 18.8612C6.6191 18.3455 6.32632 17.646 6.32632 16.9167H4.47368V13.7083H3.54737ZM18.3684 18.2917C18.7369 18.2917 19.0904 18.1468 19.3509 17.8889C19.6115 17.6311 19.7579 17.2813 19.7579 16.9167C19.7579 16.552 19.6115 16.2023 19.3509 15.9444C19.0904 15.6865 18.7369 15.5417 18.3684 15.5417C17.9999 15.5417 17.6465 15.6865 17.3859 15.9444C17.1253 16.2023 16.9789 16.552 16.9789 16.9167C16.9789 17.2813 17.1253 17.6311 17.3859 17.8889C17.6465 18.1468 17.9999 18.2917 18.3684 18.2917ZM19.7579 10.0417H17.4421V12.3333H21.5735L19.7579 10.0417ZM9.10526 18.2917C9.47377 18.2917 9.82719 18.1468 10.0878 17.8889C10.3483 17.6311 10.4947 17.2813 10.4947 16.9167C10.4947 16.552 10.3483 16.2023 10.0878 15.9444C9.82719 15.6865 9.47377 15.5417 9.10526 15.5417C8.73675 15.5417 8.38333 15.6865 8.12276 15.9444C7.86218 16.2023 7.71579 16.552 7.71579 16.9167C7.71579 17.2813 7.86218 17.6311 8.12276 17.8889C8.38333 18.1468 8.73675 18.2917 9.10526 18.2917Z"
      fill="black"
  />
</svg>
