<svg width="24" height="24" viewBox="0 0 24 24" fill="none" xmlns="http://www.w3.org/2000/svg">
<path d="M11.5 2C10.1193 2 9 3.11929 9 4.5V6H5C4.44772 6 4 6.44772 4 7V10H4.5C5.88071 10 7 11.1193 7 12.5C7 13.8807 5.88071 15 4.5 15H4V19C4 19.5523 4.44772 20 5 20H8V19.5C8 18.1193 9.11929 17 10.5 17C11.8807 17 13 18.1193 13 19.5V20H17C17.5523 20 18 19.5523 18 19V15H19.5C20.8807 15 22 13.8807 22 12.5C22 11.1193 20.8807 10 19.5 10H18V7C18 6.44772 17.5523 6 17 6H14V4.5C14 3.11929 12.8807 2 11.5 2Z" fill="#67718E"/>
</svg>
