<svg width="24" height="24" viewBox="0 0 24 24" fill="none" xmlns="http://www.w3.org/2000/svg">
<path d="M9.68687 12.0014C9.68687 13.2743 10.7278 14.3157 12 14.3157C13.2722 14.3157 14.3131 13.2743 14.3131 12.0014C14.3131 10.7286 13.2722 9.68714 12 9.68714C10.7278 9.68714 9.68687 10.7286 9.68687 12.0014Z" fill="#67718E"/>
<path d="M12 22C17.5228 22 22 17.5228 22 12C22 6.47715 17.5228 2 12 2C6.47715 2 2 6.47715 2 12C2 17.5228 6.47715 22 12 22ZM16.6263 12.0014C16.6263 12.2136 16.6134 12.4129 16.5877 12.6057L17.8792 13.6214C18.0013 13.7114 18.0334 13.8721 17.9563 14.0136L16.7226 16.1479C16.6455 16.2893 16.4849 16.3407 16.3435 16.2893L14.8079 15.6721C14.493 15.9164 14.1461 16.1221 13.767 16.2764L13.5357 17.9093C13.5164 18.0636 13.3879 18.1729 13.2337 18.1729H10.7663C10.6121 18.1729 10.49 18.0636 10.4579 17.9093L10.2266 16.2764C9.8475 16.1221 9.50696 15.9164 9.18569 15.6721L7.65003 16.2893C7.50867 16.3343 7.34804 16.2893 7.27094 16.1479L6.03727 14.0136C5.96659 13.885 5.99872 13.7114 6.11437 13.6214L7.41872 12.6057C7.38659 12.4129 7.37374 12.2007 7.37374 12.0014C7.37374 11.8021 7.39944 11.59 7.43157 11.3971L6.12722 10.3814C5.99872 10.2914 5.97301 10.1243 6.05012 9.98929L7.27736 7.855C7.35447 7.71357 7.5151 7.66214 7.65646 7.71357L9.19212 8.33071C9.50696 8.09286 9.85393 7.88071 10.233 7.72643L10.4643 6.09357C10.49 5.93929 10.6121 5.83 10.7663 5.83H13.2337C13.3879 5.83 13.5164 5.93929 13.5421 6.09357L13.7734 7.72643C14.1525 7.88071 14.493 8.08643 14.8143 8.33071L16.35 7.71357C16.4913 7.66857 16.652 7.71357 16.7291 7.855L17.9627 9.98929C18.0334 10.1179 18.0013 10.2914 17.8856 10.3814L16.5813 11.3971C16.6134 11.59 16.6263 11.7957 16.6263 12.0014Z" fill="#67718E"/>
</svg>
