<svg width="24" height="24" viewBox="0 0 24 24" fill="none" xmlns="http://www.w3.org/2000/svg">
<path d="M16 7C16 4.79086 14.2091 3 12 3C9.79086 3 8 4.79086 8 7C8 7.73 8.19 8.41 8.54 9H6C5.05 9 4.25 9.67 4.05 10.56C2.04 18.57 2 18.78 2 19C2 20.1046 2.89543 21 4 21H20C21.1046 21 22 20.1046 22 19C22 18.78 21.96 18.57 19.95 10.56C19.75 9.67 18.95 9 18 9H15.46C15.81 8.41 16 7.73 16 7ZM10 7C10 5.89543 10.8954 5 12 5C13.1046 5 14 5.89543 14 7C14 8.10457 13.1046 9 12 9C10.8954 9 10 8.10457 10 7Z" fill="#67718E"/>
</svg>
