<svg width="24" height="24" viewBox="0 0 24 24" fill="none" xmlns="http://www.w3.org/2000/svg">
<path d="M8.90995 11.09L7.49995 12.5L11 16L17 9.99995L15.59 8.57995L11 13.17L8.90995 11.09Z" fill="#67718E"/>
<path d="M2.19995 16.06L3.87995 12L2.19995 7.93995L6.25995 6.25995L7.93995 2.19995L12 3.87995L16.06 2.19995L17.74 6.25995L21.8 7.93995L20.12 12L21.8 16.06L17.74 17.74L16.06 21.8L12 20.12L7.93995 21.8L6.25995 17.74L2.19995 16.06ZM4.69995 15.0242L7.72424 16.2757L8.97567 19.3L12 18.0485L15.0242 19.3L16.2757 16.2757L19.3 15.0242L18.0485 12L19.3 8.97567L16.2757 7.72424L15.0242 4.69995L12 5.95138L8.97567 4.69995L7.72424 7.72424L4.69995 8.97567L5.95138 12L4.69995 15.0242Z" fill="#67718E"/>
</svg>
