<svg width="24" height="24" viewBox="0 0 24 24" fill="none" xmlns="http://www.w3.org/2000/svg">
<path d="M8.19212 5.42816L5.81145 6.76134L7.14463 4.38067L5.81145 2L8.19212 3.33317L10.5728 2L9.23962 4.38067L10.5728 6.76134L8.19212 5.42816ZM19.6193 14.7604L22 13.4272L20.6668 15.8079L22 18.1885L19.6193 16.8554L17.2387 18.1885L18.5718 15.8079L17.2387 13.4272L19.6193 14.7604ZM22 2L20.6668 4.38067L22 6.76134L19.6193 5.42816L17.2387 6.76134L18.5718 4.38067L17.2387 2L19.6193 3.33317L22 2ZM13.7534 12.2654L16.0769 9.94191L14.0581 7.92311L11.7346 10.2466L13.7534 12.2654ZM14.7342 7.0375L16.9625 9.2658C17.3339 9.61814 17.3339 10.2371 16.9625 10.6085L5.84954 21.7215C5.47816 22.0928 4.85918 22.0928 4.50684 21.7215L2.27854 19.4932C1.90715 19.1408 1.90715 18.5218 2.27854 18.1505L13.3915 7.0375C13.7629 6.66611 14.3819 6.66611 14.7342 7.0375Z" fill="#67718E"/>
</svg>
