<svg width="24" height="24" viewBox="0 0 24 24" fill="none" xmlns="http://www.w3.org/2000/svg">
<path d="M17 1H7C5.67392 1 4.40215 1.52678 3.46447 2.46447C2.52678 3.40215 2 4.67392 2 6C2 7.32608 2.52678 8.59785 3.46447 9.53553C4.40215 10.4732 5.67392 11 7 11H17C18.3261 11 19.5979 10.4732 20.5355 9.53553C21.4732 8.59785 22 7.32608 22 6C22 4.67392 21.4732 3.40215 20.5355 2.46447C19.5979 1.52678 18.3261 1 17 1ZM17 9C16.2044 9 15.4413 8.68393 14.8787 8.12132C14.3161 7.55871 14 6.79565 14 6C14 5.20435 14.3161 4.44129 14.8787 3.87868C15.4413 3.31607 16.2044 3 17 3C17.7956 3 18.5587 3.31607 19.1213 3.87868C19.6839 4.44129 20 5.20435 20 6C20 6.79565 19.6839 7.55871 19.1213 8.12132C18.5587 8.68393 17.7956 9 17 9Z" fill="#67718E"/>
<path d="M17 13H7C5.67392 13 4.40215 13.5268 3.46447 14.4645C2.52678 15.4021 2 16.6739 2 18C2 19.3261 2.52678 20.5979 3.46447 21.5355C4.40215 22.4732 5.67392 23 7 23H17C18.3261 23 19.5979 22.4732 20.5355 21.5355C21.4732 20.5979 22 19.3261 22 18C22 16.6739 21.4732 15.4021 20.5355 14.4645C19.5979 13.5268 18.3261 13 17 13ZM7 21C6.20435 21 5.44129 20.6839 4.87868 20.1213C4.31607 19.5587 4 18.7956 4 18C4 17.2044 4.31607 16.4413 4.87868 15.8787C5.44129 15.3161 6.20435 15 7 15C7.79565 15 8.55871 15.3161 9.12132 15.8787C9.68393 16.4413 10 17.2044 10 18C10 18.7956 9.68393 19.5587 9.12132 20.1213C8.55871 20.6839 7.79565 21 7 21Z" fill="#67718E"/>
</svg>
