<svg width="24" height="24" viewBox="0 0 24 24" fill="none" xmlns="http://www.w3.org/2000/svg">
<path d="M4.92124 4.92124C1.03215 8.81032 1.01801 15.1601 4.92831 19.0704C8.59112 22.7333 14.3965 22.9525 18.3209 19.7351L20.223 21.6372V16.3622L14.9409 16.3552L16.8926 18.3068C13.7601 20.7463 9.22044 20.5342 6.33545 17.6492C4.83516 16.1489 3.9923 14.114 3.9923 11.9923C3.9923 9.87057 4.83516 7.83574 6.33545 6.33545C7.83574 4.83516 9.87057 3.9923 11.9923 3.9923C14.114 3.9923 16.1489 4.83516 17.6492 6.33545C19.6856 8.37192 20.3786 11.2286 19.7563 13.8449L21.7574 14.0783C22.4363 10.868 21.5524 7.41025 19.0704 4.92831C15.1601 1.01801 8.81032 1.03215 4.92124 4.92124Z" fill="#67718E"/>
<path d="M5.85028 12.8756L10.093 17.1181L17.8712 9.33997L16.457 7.92576L10.0929 14.2898L7.26449 11.4614L5.85028 12.8756Z" fill="#67718E"/>
</svg>
