<svg width="24" height="24" viewBox="0 0 24 24" fill="none" xmlns="http://www.w3.org/2000/svg">
<path d="M5.33333 6.99935H7V16.9993H5.33333V6.99935ZM7.83333 6.99935H8.66667V16.9993H7.83333V6.99935ZM9.5 6.99935H12V16.9993H9.5V6.99935ZM12.8333 6.99935H13.6667V16.9993H12.8333V6.99935ZM15.3333 6.99935H17V16.9993H15.3333V6.99935ZM17.8333 6.99935H18.6667V16.9993H17.8333V6.99935ZM3.66667 5.33268V8.66602H2V5.33268C2 4.89065 2.17559 4.46673 2.48816 4.15417C2.80072 3.84161 3.22464 3.66602 3.66667 3.66602H7V5.33268H3.66667ZM20.3333 3.66602C20.7754 3.66602 21.1993 3.84161 21.5118 4.15417C21.8244 4.46673 22 4.89065 22 5.33268V8.66602H20.3333V5.33268H17V3.66602H20.3333ZM3.66667 15.3327V18.666H7V20.3327H3.66667C3.22464 20.3327 2.80072 20.1571 2.48816 19.8445C2.17559 19.532 2 19.108 2 18.666V15.3327H3.66667ZM20.3333 18.666V15.3327H22V18.666C22 19.108 21.8244 19.532 21.5118 19.8445C21.1993 20.1571 20.7754 20.3327 20.3333 20.3327H17V18.666H20.3333Z" fill="#67718E"/>
</svg>
