<svg width="24" height="24" viewBox="0 0 24 24" fill="none" xmlns="http://www.w3.org/2000/svg">
    <path
        d="M4.98433 8.83464C4.33856 8.51176 4.33856 7.98825 4.98433 7.66536L10.8307 4.74217C11.4765 4.41928 12.5235 4.41928 13.1693 4.74217L19.0157 7.66536C19.6615 7.98825 19.6615 8.51176 19.0157 8.83464L13.1693 11.7578C12.5235 12.0807 11.4765 12.0807 10.8307 11.7578L4.98433 8.83464Z"
        fill="black" />
    <path
        d="M6.35813 10.7766L4.98433 11.4547C4.33856 11.7735 4.33856 12.2903 4.98433 12.6091L10.8307 15.495C11.4765 15.8137 12.5235 15.8137 13.1693 15.495L19.0157 12.6091C19.6615 12.2903 19.6615 11.7735 19.0157 11.4547L17.6419 10.7766L13.1693 12.9843C12.5235 13.3031 11.4765 13.3031 10.8307 12.9843L6.35813 10.7766Z"
        fill="black" />
    <path
        d="M6.35813 14.5425L4.98433 15.2206C4.33856 15.5394 4.33856 16.0562 4.98433 16.375L10.8307 19.2609C11.4765 19.5797 12.5235 19.5797 13.1693 19.2609L19.0157 16.375C19.6615 16.0562 19.6615 15.5394 19.0157 15.2206L17.6419 14.5425L13.1693 16.7503C12.5235 17.0691 11.4765 17.0691 10.8307 16.7503L6.35813 14.5425Z"
        fill="black" />
</svg>
