<svg width="24" height="24" viewBox="0 0 24 24" fill="none" xmlns="http://www.w3.org/2000/svg">
<path d="M2.83333 2.83333V6.5H1V2.83333C1 1.82081 1.82081 1 2.83333 1H6.5V2.83333H2.83333ZM4.66667 4.66667H10.1667V10.1667H4.66667V4.66667ZM19.3333 4.66667V10.1667H13.8333V4.66667H19.3333ZM15.6667 14.75H13.8333V15.6667H11.0833V19.3333H12.9167V17.5H15.6667V19.3333H17.5V17.5H19.3333V14.75H17.5V12.9167H19.3333V11.0833H17.5V12.9167H15.6667V11.0833H13.8333V12.9167H15.6667V14.75ZM15.6667 14.75H17.5V17.5H15.6667V14.75ZM4.66667 13.8333V19.3333H10.1667V13.8333H4.66667ZM6.5 6.5V8.33333H8.33333V6.5H6.5ZM15.6667 8.33333H17.5V6.5H15.6667V8.33333ZM6.5 15.6667H8.33333V17.5H6.5V15.6667ZM6.5 11.0833H4.66667V12.9167H6.5V11.0833ZM9.25 12.9167V11.0833H12.9167V14.75H11.0833V12.9167H9.25ZM12.9167 6.5H11.0833V10.1667H12.9167V6.5ZM23 2.83333C23 1.82081 22.1792 1 21.1667 1H17.5V2.83333H21.1667V6.5H23V2.83333ZM2.83333 17.5V21.1667H6.5V23H2.83333C1.82081 23 1 22.1792 1 21.1667V17.5H2.83333ZM23 17.5H21.1667V21.1667H17.5V23H21.1667C22.1792 23 23 22.1792 23 21.1667V17.5Z" fill="#67718E"/>
</svg>
