<svg width="24" height="24" viewBox="0 0 24 24" fill="none" xmlns="http://www.w3.org/2000/svg">
  <path d="M20 7.5V13.3414C19.3744 13.1203 18.7013 13 18 13V9.21L12 12.58V21.5783L11.57 21.82C11.41 21.94 11.21 22 11 22C10.79 22 10.59 21.94 10.43 21.82L2.53 17.38C2.21 17.21 2 16.88 2 16.5V7.5C2 7.12 2.21 6.79 2.53 6.62L10.43 2.18C10.59 2.06 10.79 2 11 2C11.21 2 11.41 2.06 11.57 2.18L19.47 6.62C19.79 6.79 20 7.12 20 7.5ZM11 4.15L9.11 5.22L15 8.61L16.96 7.5L11 4.15ZM5.04 7.5L11 10.85L12.96 9.75L7.08 6.35L5.04 7.5ZM4 15.91L10 19.29V12.58L4 9.21V15.91Z" fill="#67718E"/>
  <path d="M15 16.404L16.404 15L18.5 17.1059L20.596 15.0099L21.9901 16.404L19.8941 18.5L22 20.596L20.596 22L18.5 19.8941L16.404 21.9901L15.0099 20.596L17.1059 18.5L15 16.404Z" fill="#DC2518"/>
</svg>
