<svg width="24" height="24" viewBox="0 0 24 24" fill="none" xmlns="http://www.w3.org/2000/svg">
<g id="pieces">
<g id="Vector">
<path d="M14.1053 8.84211C14.1053 10.0048 13.1627 10.9474 12 10.9474C10.8373 10.9474 9.89474 10.0048 9.89474 8.84211C9.89474 7.6794 10.8373 6.73684 12 6.73684C13.1627 6.73684 14.1053 7.6794 14.1053 8.84211Z" fill="#67718E"/>
<path d="M8.84211 17.2632C10.0048 17.2632 10.9474 16.3206 10.9474 15.1579C10.9474 13.9952 10.0048 13.0526 8.84211 13.0526C7.6794 13.0526 6.73684 13.9952 6.73684 15.1579C6.73684 16.3206 7.6794 17.2632 8.84211 17.2632Z" fill="#67718E"/>
<path d="M17.2632 15.1579C17.2632 16.3206 16.3206 17.2632 15.1579 17.2632C13.9952 17.2632 13.0526 16.3206 13.0526 15.1579C13.0526 13.9952 13.9952 13.0526 15.1579 13.0526C16.3206 13.0526 17.2632 13.9952 17.2632 15.1579Z" fill="#67718E"/>
<path d="M12 2C6.47715 2 2 6.47715 2 12C2 17.5228 6.47715 22 12 22C17.5228 22 22 17.5228 22 12C22 6.47715 17.5228 2 12 2ZM3.05263 12C3.05263 7.05851 7.05851 3.05263 12 3.05263C16.9415 3.05263 20.9474 7.05851 20.9474 12C20.9474 16.9415 16.9415 20.9474 12 20.9474C7.05851 20.9474 3.05263 16.9415 3.05263 12Z" fill="#67718E"/>
</g>
</g>
</svg>
