<svg width="24" height="24" viewBox="0 0 24 24" fill="none" xmlns="http://www.w3.org/2000/svg">
<g id="Vehicle Model / v2">
<g id="Subtract">
<path d="M17.9318 9.54247H16.4545V11.0197H19.0959L17.9318 9.54247Z" fill="#67718E"/>
<path d="M9.95455 13.0879C9.46502 13.0879 9.06818 13.4848 9.06818 13.9743C9.06818 14.4638 9.46502 14.8607 9.95455 14.8607C10.4441 14.8607 10.8409 14.4638 10.8409 13.9743C10.8409 13.4848 10.4441 13.0879 9.95455 13.0879Z" fill="#67718E"/>
<path d="M17.9318 13.9743C17.9318 13.4848 17.535 13.0879 17.0455 13.0879C16.5559 13.0879 16.1591 13.4848 16.1591 13.9743C16.1591 14.4638 16.5559 14.8607 17.0455 14.8607C17.535 14.8607 17.9318 14.4638 17.9318 13.9743Z" fill="#67718E"/>
<path d="M5.44062 18.5594C5.73438 18.8531 6.0875 19 6.5 19H20.5C20.9125 19 21.2656 18.8531 21.5594 18.5594C21.8531 18.2656 22 17.9125 22 17.5V3.5C22 3.0875 21.8531 2.73438 21.5594 2.44063C21.2656 2.14687 20.9125 2 20.5 2H6.5C6.0875 2 5.73438 2.14687 5.44062 2.44063C5.14687 2.73438 5 3.0875 5 3.5V17.5C5 17.9125 5.14687 18.2656 5.44062 18.5594ZM8.18182 6H16.4545V8.65611H18.2273L20 11.0197V13.9743H18.8182C18.8182 14.9533 18.0245 15.747 17.0455 15.747C16.0664 15.747 15.2727 14.9533 15.2727 13.9743H11.7273C11.7273 14.9533 10.9336 15.747 9.95455 15.747C8.9755 15.747 8.18182 14.9533 8.18182 13.9743H7V7.18182C7 6.52912 7.52912 6 8.18182 6Z" fill="#67718E"/>
<path d="M2.44063 21.5594C2.73438 21.8531 3.0875 22 3.5 22H17.75V20.5H3.5V6.25H2V20.5C2 20.9125 2.14687 21.2656 2.44063 21.5594Z" fill="#67718E"/>
</g>
</g>
</svg>
