<svg width="24" height="24" viewBox="0 0 24 24" fill="none" xmlns="http://www.w3.org/2000/svg">
    <path
        d="M19.7145 12C19.7145 12.3375 19.6888 12.6625 19.6502 12.975L21.7974 14.625C22.0031 14.775 22.0545 15.0375 21.9259 15.2625L19.8688 18.725C19.7402 18.95 19.4702 19.0375 19.2387 18.95L16.6801 17.95C16.153 18.3375 15.5744 18.675 14.9444 18.925L14.5586 21.575C14.5329 21.825 14.3143 22 14.0572 22H9.94281C9.68566 22 9.47994 21.825 9.42851 21.575L9.04279 18.925C8.41277 18.675 7.84704 18.35 7.30703 17.95L4.7484 18.95C4.51697 19.025 4.24696 18.95 4.11839 18.725L2.0612 15.2625C1.94548 15.05 1.99691 14.775 2.18977 14.625L4.36268 12.975C4.31125 12.6625 4.28553 12.325 4.28553 12C4.28553 11.675 4.32411 11.3375 4.37554 11.025L2.20263 9.375C1.99691 9.225 1.94548 8.9625 2.07405 8.7375L4.13124 5.275C4.25982 5.05 4.52982 4.9625 4.76126 5.05L7.31989 6.05C7.84704 5.6625 8.42563 5.325 9.05564 5.075L9.44137 2.425C9.47994 2.175 9.68566 2 9.94281 2H14.0572C14.3143 2 14.5329 2.175 14.5715 2.425L14.9572 5.075C15.5872 5.325 16.153 5.65 16.693 6.05L19.2516 5.05C19.483 4.975 19.753 5.05 19.8816 5.275L21.9388 8.7375C22.0545 8.95 22.0031 9.225 21.8102 9.375L19.6373 11.025C19.6888 11.3375 19.7145 11.6625 19.7145 12ZM8.14277 12C8.14277 14.0625 9.87852 15.75 12 15.75C14.1215 15.75 15.8572 14.0625 15.8572 12C15.8572 9.9375 14.1215 8.25 12 8.25C9.87852 8.25 8.14277 9.9375 8.14277 12Z"
        fill="black" />
</svg>
