<svg width="24" height="24" viewBox="0 0 24 24" fill="none" xmlns="http://www.w3.org/2000/svg">
<path d="M9.5 11.5C7.15188 11.5 5.25 9.59812 5.25 7.25C5.25 4.90188 7.15188 3 9.5 3C11.8481 3 13.75 4.90188 13.75 7.25C13.75 9.59812 11.8481 11.5 9.5 11.5Z" fill="#67718E"/>
<path d="M9.5 13.625C11.2753 13.625 14.1574 14.1826 16.0658 15.2925H16.023L13.7466 17.5689L16.1777 20H1V17.875C1 15.0487 6.66313 13.625 9.5 13.625Z" fill="#67718E"/>
<path d="M21.5253 11.3251L23.0753 12.8751L20.7502 15.2002L23.0753 17.5253L21.5253 19.0753L19.2002 16.7502L16.8751 19.0753L15.3251 17.5253L17.6501 15.2002L15.3251 12.8751L16.8751 11.3251L19.2002 13.6501L21.5253 11.3251Z" fill="#67718E"/>
</svg>
