<svg width="24" height="24" viewBox="0 0 24 24" fill="none" xmlns="http://www.w3.org/2000/svg">
<path d="M14.4025 8.98587C14.9131 9.21278 15.3066 9.53896 15.5831 9.96442C15.8597 10.3899 15.998 10.8862 15.998 11.4535C15.998 12.0208 15.8597 12.5171 15.5831 12.9426C15.3066 13.3681 14.9131 13.6942 14.4025 13.9211C13.892 14.1481 13.2928 14.2615 12.605 14.2615H11.5307V16.091H9.02051V8.64551H12.605C13.2928 8.64551 13.892 8.75896 14.4025 8.98587ZM13.2112 12.1023C13.3814 11.9463 13.4665 11.7301 13.4665 11.4535C13.4665 11.177 13.3814 10.9642 13.2112 10.8153C13.0411 10.6593 12.7858 10.5813 12.4454 10.5813H11.5307V12.3257H12.4454C12.7858 12.3257 13.0411 12.2512 13.2112 12.1023Z" fill="#67718E"/>
<path d="M21 12C21 16.9706 16.9706 21 12 21C7.02944 21 3 16.9706 3 12C3 7.02944 7.02944 3 12 3C16.9706 3 21 7.02944 21 12ZM19 12C19 8.13401 15.866 5 12 5C8.13401 5 5 8.13401 5 12C5 15.866 8.13401 19 12 19C15.866 19 19 15.866 19 12Z" fill="#67718E"/>
</svg>
