<svg width="24" height="24" viewBox="0 0 24 24" fill="none" xmlns="http://www.w3.org/2000/svg">
<path d="M2.48525 10.5312C2.00918 10.2646 1.86636 9.68381 2.13296 9.22678L3.56117 6.76072C3.66591 6.57029 3.82777 6.43699 4.00868 6.36082L11.464 2.17139C11.6163 2.05713 11.8067 2 12.0067 2C12.2066 2 12.3971 2.05713 12.5494 2.17139L20.0714 6.39891C20.2523 6.49412 20.4046 6.64647 20.4903 6.83689L21.8709 9.2363C22.1375 9.69333 21.9756 10.2741 21.5281 10.5312L20.576 11.0835V15.8061C20.576 16.1679 20.376 16.4821 20.0714 16.644L12.5494 20.8715C12.3971 20.9858 12.2066 21.0429 12.0067 21.0429C11.8067 21.0429 11.6163 20.9858 11.464 20.8715L3.94203 16.644C3.63734 16.4821 3.43739 16.1679 3.43739 15.8061V10.5312C3.15175 10.6931 2.78994 10.7026 2.48525 10.5312ZM12.0067 10.4265L17.6815 7.23679L12.0067 4.04711V10.4265ZM11.0546 18.4626V12.0737L5.34168 8.86496V15.2443L11.0546 18.4626ZM18.6717 15.2443V12.1784L13.911 14.9396C13.5968 15.111 13.2445 15.1015 12.9588 14.9492V18.4626L18.6717 15.2443ZM19.7476 9.36008L13.7682 12.8164L13.2159 11.8547L19.1954 8.39841L19.7476 9.36008Z" fill="#67718E"/>
</svg>
