<svg width="24" height="24" viewBox="0 0 24 24" fill="none" xmlns="http://www.w3.org/2000/svg">
  <path d="M4.14328 10.1908C4.14328 10.467 4.15222 10.7368 4.1689 11H6.99712C9.90081 11 12.3227 13.0626 12.8776 15.8027C14.0828 14.7169 14.7036 13.0463 14.7036 10.824C14.7036 10.3285 14.8656 9.17547 16.3647 9.17547H20.9142C21.2466 9.17547 21.5163 9.1368 21.5163 8.80436C21.5163 4.58938 18.173 2 12.9807 2C12.7372 2 12.4884 2.00523 12.2364 2.01673C4.322 2.38148 4.14433 8.2589 4.14328 10.1908Z" fill="#67718E"/>
  <path d="M12.9377 17.8476C12.7101 19.4574 11.8436 20.8618 10.603 21.796C11.5832 21.9564 12.4873 22 13.1813 22C13.9675 22 14.4839 21.9446 14.5382 21.9383C14.7954 21.909 14.9971 21.7209 15.0546 21.4783L12.9377 17.8476Z" fill="#67718E"/>
  <path d="M15.7738 10.8239C15.7738 13.2252 15.11 15.1027 13.8033 16.4042C13.7051 16.5014 13.6026 16.5943 13.4992 16.6842L15.6923 20.4466H17.6817C18.9549 20.4466 19.9899 19.4117 19.9899 18.1384V15.916H21.3948C21.606 15.916 21.8025 15.8052 21.9112 15.6233C22.021 15.4414 22.0252 15.2156 21.9259 15.0295L19.9898 11.4145V10.2458H16.3645C15.9965 10.2458 15.7738 10.2845 15.7738 10.8239ZM18.6226 12.0001C18.6226 12.3691 18.3236 12.668 17.9546 12.668C17.5855 12.668 17.2866 12.3691 17.2866 12.0001C17.2866 11.631 17.5855 11.3321 17.9546 11.3321C18.3236 11.3321 18.6226 11.631 18.6226 12.0001Z" fill="#67718E"/>
  <path d="M10 15.8781L5.08064 20.7976L2 17.7169L3.35844 16.3585L5.08064 18.0807L8.64156 14.5196L10 15.8781Z" fill="#67718E"/>
</svg>
