<svg width="24" height="24" viewBox="0 0 24 24" fill="none" xmlns="http://www.w3.org/2000/svg">
<path d="M14.752 3.82846C14.2895 2.7581 13.235 2 12 2C10.7 2 9.6 2.84 9.18 4H5L4.85074 4.00549C3.81588 4.08183 3 4.94564 3 6V20L3.00549 20.1493C3.08183 21.1841 3.94564 22 5 22H19L19.1493 21.9945C20.1841 21.9182 21 21.0544 21 20V6L20.9945 5.85074C20.9182 4.81588 20.0544 4 19 4H14.82L14.752 3.82846ZM7 13C7 10.2386 9.23858 8 12 8C14.7614 8 17 10.2386 17 13C17 15.7614 14.7614 18 12 18C9.23858 18 7 15.7614 7 13ZM11.8265 9.0037L12 9V13H8C8 10.849 9.69785 9.09455 11.8265 9.0037ZM11 5C11 4.44772 11.4477 4 12 4C12.5523 4 13 4.44772 13 5C13 5.55228 12.5523 6 12 6C11.4477 6 11 5.55228 11 5Z" fill="#67718E"/>
</svg>
