<svg width="24" height="24" viewBox="0 0 24 24" fill="none" xmlns="http://www.w3.org/2000/svg">
<path d="M10.0001 15H0.90918L2.00009 16H11.0002L10.0001 15Z" fill="#67718E"/>
<path d="M10.0001 17H2.72736L3.72745 18H11.0002L10.0001 17Z" fill="#67718E"/>
<path d="M10.0001 19H5.00009L6.00009 20H11.0002L10.0001 19Z" fill="#67718E"/>
<path d="M22 16.5C22 16.88 21.79 17.21 21.47 17.38L13.57 21.82C13.41 21.94 13.21 22 13 22C12.79 22 12.59 21.94 12.43 21.82L12 21.5783V12.58L6 9.21V13C5.29873 13 4.62556 13.1203 4 13.3414V7.5C4 7.12 4.21 6.79 4.53 6.62L12.43 2.18C12.59 2.06 12.79 2 13 2C13.21 2 13.41 2.06 13.57 2.18L21.47 6.62C21.79 6.79 22 7.12 22 7.5V16.5ZM13 4.15L11.11 5.22L17 8.61L18.96 7.5L13 4.15ZM7.04 7.5L13 10.85L14.96 9.75L9.08 6.35L7.04 7.5ZM20 15.91V9.21L14 12.58V19.29L20 15.91Z" fill="#67718E"/>
</svg>
