<svg width="24" height="24" viewBox="0 0 24 24" fill="none" xmlns="http://www.w3.org/2000/svg">
<g id="ID / Vehicle id">
<g id="Union">
<path d="M13.8333 8.4H19.3333V10.2H13.8333V8.4Z" fill="#67718E"/>
<path d="M13.8333 12H19.3333V13.8H13.8333V12Z" fill="#67718E"/>
<path d="M13.8333 15.6H19.3333V17.4H13.8333V15.6Z" fill="#67718E"/>
<path d="M13.8333 4.8H21.1667C21.6529 4.8 22.1192 4.98964 22.463 5.32721C22.8068 5.66477 23 6.12261 23 6.6V19.2C23 19.6774 22.8068 20.1352 22.463 20.4728C22.1192 20.8104 21.6529 21 21.1667 21H2.83333C2.3471 21 1.88079 20.8104 1.53697 20.4728C1.19315 20.1352 1 19.6774 1 19.2V6.6C1 6.12261 1.19315 5.66477 1.53697 5.32721C1.88079 4.98964 2.3471 4.8 2.83333 4.8H10.1667V6.6H2.83333V19.2H21.1667V6.6H13.8333V4.8Z" fill="#67718E"/>
<path d="M11.0833 6.6H12.9167V3H11.0833V6.6Z" fill="#67718E"/>
<path d="M7.48745 16.1813H4.5V9H8.69994V10.725H10.5187L12.3374 13.15V16.1813H11.1249C11.1249 17.1857 10.3106 18 9.30619 18C8.30172 18 7.48745 17.1857 7.48745 16.1813ZM10.2156 11.6344H8.69994V13.15H11.4099L10.2156 11.6344ZM10.2156 16.1813C10.2156 15.679 9.80842 15.2719 9.30619 15.2719C8.80396 15.2719 8.39682 15.679 8.39682 16.1813C8.39682 16.6835 8.80396 17.0906 9.30619 17.0906C9.80842 17.0906 10.2156 16.6835 10.2156 16.1813Z" fill="#67718E"/>
</g>
</g>
</svg>
