<svg width="24" height="24" viewBox="0 0 24 24" fill="none" xmlns="http://www.w3.org/2000/svg">
<path d="M12 2C13.235 2 14.2895 2.7581 14.752 3.82846L14.82 4H19C20.0544 4 20.9182 4.81588 20.9945 5.85074L21 6V10L9 22H5C3.94564 22 3.08183 21.1841 3.00549 20.1493L3 20V6C3 4.94564 3.81588 4.08183 4.85074 4.00549L5 4H9.18C9.6 2.84 10.7 2 12 2ZM21.7 16.35L19.65 14.3L20.65 13.3C20.86 13.08 21.21 13.08 21.42 13.3L22.7 14.58C22.92 14.79 22.92 15.14 22.7 15.35L21.7 16.35ZM19.07 14.88L21.12 16.93L15.06 23H13V20.94L19.07 14.88ZM12 4C11.4477 4 11 4.44772 11 5C11 5.55228 11.4477 6 12 6C12.5523 6 13 5.55228 13 5C13 4.44772 12.5523 4 12 4Z" fill="#67718E"/>
</svg>
