<svg width="24" height="24" viewBox="0 0 24 24" fill="none" xmlns="http://www.w3.org/2000/svg">
<path d="M17.4697 14.4698C16.7165 14.8104 15.8804 15 15 15C11.6863 15 9.00003 12.3137 9.00003 9C9.00003 8.11958 9.18966 7.28346 9.5303 6.53024C7.44851 7.47168 6 9.56668 6 12C6 15.3137 8.68629 18 12 18C14.4333 18 16.5283 16.5515 17.4697 14.4698Z" fill="#67718E"/>
<path d="M12.3433 6.00965C15.3836 6.18113 17.8188 8.61633 17.9903 11.6567C17.2577 12.4808 16.1894 13 15 13C12.7908 13 11 11.2091 11 9C11 7.81054 11.5191 6.74234 12.3433 6.00965Z" fill="#67718E"/>
<path d="M13 1H11V4H13V1Z" fill="#67718E"/>
<path d="M1 11H4V13H1V11Z" fill="#67718E"/>
<path d="M23 11H20V13H23V11Z" fill="#67718E"/>
<path d="M11 20H13V23H11V20Z" fill="#67718E"/>
<path d="M4.92895 3.51472L3.51473 4.92893L5.63605 7.05025L7.05027 5.63604L4.92895 3.51472Z" fill="#67718E"/>
<path d="M3.51473 19.0711L5.63605 16.9497L7.05027 18.364L4.92895 20.4853L3.51473 19.0711Z" fill="#67718E"/>
<path d="M19.0711 3.51472L16.9498 5.63604L18.364 7.05025L20.4853 4.92893L19.0711 3.51472Z" fill="#67718E"/>
<path d="M16.9498 18.364L18.364 16.9497L20.4853 19.0711L19.0711 20.4853L16.9498 18.364Z" fill="#67718E"/>
</svg>
