<svg width="24" height="24" viewBox="0 0 24 24" fill="none" xmlns="http://www.w3.org/2000/svg">
  <path fill="black" d="M 4.4375 4.4375 L 6.84375 4.4375 L 6.84375 6.15625 C 6.84375 6.914062 7.460938 7.53125 8.21875 7.53125 L 15.78125 7.53125 C 16.539062 7.53125 17.15625 6.914062 17.15625 6.15625 L 17.15625 4.4375 L 19.5625 4.4375 C 19.941406 4.4375 20.25 4.746094 20.25 5.125 L 20.25 22.3125 C 20.25 22.691406 19.941406 23 19.5625 23 L 4.4375 23 C 4.058594 23 3.75 22.691406 3.75 22.3125 L 3.75 5.125 C 3.75 4.746094 4.058594 4.4375 4.4375 4.4375 Z M 5.8125 16.8125 C 5.8125 17.195312 6.121094 17.5 6.496094 17.5 L 12.003906 17.5 C 12.375 17.5 12.6875 17.191406 12.6875 16.8125 C 12.6875 16.429688 12.382812 16.125 12.003906 16.125 L 6.496094 16.125 C 6.125 16.125 5.8125 16.433594 5.8125 16.8125 Z M 5.8125 13.71875 C 5.8125 14.101562 6.117188 14.40625 6.496094 14.40625 L 17.503906 14.40625 C 17.882812 14.40625 18.1875 14.097656 18.1875 13.71875 C 18.1875 13.335938 17.882812 13.03125 17.503906 13.03125 L 6.496094 13.03125 C 6.3125 13.03125 6.140625 13.105469 6.011719 13.234375 C 5.882812 13.363281 5.8125 13.535156 5.8125 13.71875 Z M 5.8125 10.625 C 5.8125 11.007812 6.117188 11.3125 6.496094 11.3125 L 17.503906 11.3125 C 17.882812 11.3125 18.1875 11.003906 18.1875 10.625 C 18.1875 10.242188 17.882812 9.9375 17.503906 9.9375 L 6.496094 9.9375 C 6.3125 9.9375 6.140625 10.011719 6.011719 10.140625 C 5.882812 10.269531 5.8125 10.441406 5.8125 10.625 Z M 5.8125 10.625 "/>
  <path fill="black" d="M 9.9375 3.0625 C 9.9375 1.921875 10.859375 1 12 1 C 13.140625 1 14.0625 1.921875 14.0625 3.0625 L 15.4375 3.0625 C 15.816406 3.0625 16.125 3.371094 16.125 3.75 L 16.125 5.8125 C 16.125 5.996094 16.050781 6.167969 15.921875 6.296875 C 15.792969 6.425781 15.621094 6.5 15.4375 6.5 L 8.5625 6.5 C 8.183594 6.5 7.875 6.191406 7.875 5.8125 L 7.875 3.75 C 7.875 3.371094 8.183594 3.0625 8.5625 3.0625 Z M 12 3.75 C 12.378906 3.75 12.6875 3.441406 12.6875 3.0625 C 12.6875 2.683594 12.378906 2.375 12 2.375 C 11.621094 2.375 11.3125 2.683594 11.3125 3.0625 C 11.3125 3.441406 11.621094 3.75 12 3.75 Z M 12 3.75 "/>
</svg>
