<svg width="24" height="24" viewBox="0 0 24 24" fill="none" xmlns="http://www.w3.org/2000/svg">
<path d="M20 6.58V18.67C20 20.5091 18.5091 22 16.67 22H10.58C9.67998 22 8.82998 21.64 8.20998 21L1.66998 14.36C1.66998 14.36 2.71998 13.33 2.74998 13.32C2.92998 13.16 3.15998 13.07 3.40998 13.07C3.58998 13.07 3.75998 13.12 3.90998 13.21C3.93998 13.22 7.49998 15.26 7.49998 15.26V5.33C7.49998 4.63964 8.05963 4.08 8.74998 4.08C9.44034 4.08 9.99998 4.63964 9.99998 5.33V11.17H10.83V3.25C10.83 2.55964 11.3896 2 12.08 2C12.78 2 13.33 2.56 13.33 3.25V11.17H14.17V4.08C14.17 3.39 14.72 2.83 15.42 2.83C16.1103 2.83 16.67 3.38964 16.67 4.08V11.17H17.5V6.58C17.5 5.88964 18.0596 5.33 18.75 5.33C19.4403 5.33 20 5.88964 20 6.58Z" fill="black"/>
</svg>
