<svg width="24" height="24" viewBox="0 0 24 24" fill="none" xmlns="http://www.w3.org/2000/svg">
<path d="M19.2 4H4.8C4.32261 4 3.86477 4.18964 3.52721 4.52721C3.18964 4.86477 3 5.32261 3 5.8V22L6.6 18.4H19.2C19.6774 18.4 20.1352 18.2104 20.4728 17.8728C20.8104 17.5352 21 17.0774 21 16.6V5.8C21 5.32261 20.8104 4.86477 20.4728 4.52721C20.1352 4.18964 19.6774 4 19.2 4ZM6.6 10.3H17.4V12.1H6.6V10.3ZM13.8 14.8H6.6V13H13.8V14.8ZM17.4 9.4C13.1823 9.4 6.6 9.4 6.6 9.4V7.6C6.6 7.6 13.1823 7.6 17.4 7.6" fill="#67718E"/>
</svg>
