<svg width="24" height="24" viewBox="0 0 24 24" fill="none" xmlns="http://www.w3.org/2000/svg">
<path d="M12 18C12 14.69 14.69 12 18 12C19.09 12 20.12 12.3 21 12.81V12L18.92 6C18.72 5.42 18.16 5 17.5 5H6.5C5.84 5 5.28 5.42 5.08 6L3 12V20C3 20.55 3.45 21 4 21H5C5.55 21 6 20.55 6 20V19H12.09C12.04 18.67 12 18.34 12 18ZM6.5 6.5H17.5L19 11H5L6.5 6.5ZM6.5 16C5.67 16 5 15.33 5 14.5C5 13.67 5.67 13 6.5 13C7.33 13 8 13.67 8 14.5C8 15.33 7.33 16 6.5 16Z" fill="#67718E"/>
<path d="M15.5 18.5C15.5 19.88 16.62 21 18 21V19.5L20.25 21.75L18 24V22.5C15.79 22.5 14 20.71 14 18.5C14 17.68 14.25 16.92 14.67 16.29L15.76 17.38C15.59 17.72 15.5 18.1 15.5 18.5Z" fill="#67718E"/>
<path d="M18 13V14.5C20.21 14.5 22 16.29 22 18.5C22 19.32 21.75 20.08 21.33 20.71L20.24 19.62C20.41 19.28 20.5 18.9 20.5 18.5C20.5 17.12 19.38 16 18 16V17.5L15.75 15.25L18 13Z" fill="#67718E"/>
</svg>
