<svg width="24" height="24" viewBox="0 0 24 24" fill="none" xmlns="http://www.w3.org/2000/svg">
<path d="M13.6667 4C15.9687 4 17.8333 5.86458 17.8333 8.16667C17.8333 10.4687 15.9687 12.3333 13.6667 12.3333C11.3646 12.3333 9.5 10.4687 9.5 8.16667C9.5 5.86458 11.3646 4 13.6667 4Z" fill="#67718E"/>
<path d="M13.6667 12.7083C16.4479 12.7083 22 14.1042 22 16.875V20H5.33333V16.875C5.33333 14.1042 10.8854 12.7083 13.6667 12.7083Z" fill="#67718E"/>
<path d="M6.0923 11.345H2V9.98836H6.0923L4.41121 8.2926L5.36218 7.33333L8.66667 10.6667L5.36218 14L4.41121 13.0407L6.0923 11.345Z" fill="#67718E"/>
</svg>
