<svg width="24" height="24" viewBox="0 0 24 24" fill="none" xmlns="http://www.w3.org/2000/svg">
<path d="M14.06 12.3685C15.5 13.1156 16.22 13.7718 16.22 14.3574C15.96 14.842 15.26 15.2559 14.13 15.579C13 15.9122 11.95 16.0737 10.97 16.0737L10.25 15.9425L9.5 15.8112C9.16 15.8112 8.83 15.892 8.5 16.0535C8.19 16.215 8 16.4472 8 16.8107C8 17.79 8.75 18.2847 10.19 18.2847C11.9 18.2847 13.7 17.9011 15.58 17.1237C17.47 16.3564 18.41 15.2761 18.41 13.9233C18.41 13.1661 18.1 12.5199 17.5 11.9748C16.86 11.3993 16.03 10.8945 15 10.42C13.71 9.81424 12.82 9.29934 12.32 8.87532C11.82 8.47148 11.58 8.00707 11.58 7.49218C11.58 6.64412 12.29 5.88693 13.71 5.2206C15.14 4.54417 16.08 4.211 16.55 4.211L17.13 4.4735C17.43 4.66532 17.63 4.76628 17.74 4.76628C17.87 4.76628 18.07 4.66532 18.31 4.4634C18.56 4.25139 18.68 4.00909 18.68 3.7264C18.68 3.09036 18.5 2.64614 18.18 2.39374C17.85 2.13125 17.31 2 16.57 2C15.43 2 13.94 2.59566 12.12 3.77688C10.3 4.9581 9.39 6.4422 9.39 8.23927C9.39 8.93589 9.71 9.56184 10.36 10.1272C11 10.6825 12.23 11.4397 14.06 12.3685ZM6.2 17.2549L5.5 17.9616L4.1 16.5482L2.7 17.9616L2 17.2549L3.4 15.8415L2 14.4281L2.7 13.7214L4.1 15.1348L5.5 13.7214L6.2 14.4281L4.8 15.8415L6.2 17.2549ZM22 22H2V19.9808H22V22Z" fill="#67718E"/>
</svg>
