<svg width="24" height="24" viewBox="0 0 24 24" fill="none" xmlns="http://www.w3.org/2000/svg">
    <path d="M8 5C8 6.65685 6.65685 8 5 8C3.34315 8 2 6.65685 2 5C2 3.34315 3.34315 2 5 2C6.65685 2 8 3.34315 8 5Z"
        fill="black" />
    <path
        d="M22 5C22 6.65685 20.6569 8 19 8C17.3431 8 16 6.65685 16 5C16 3.34315 17.3431 2 19 2C20.6569 2 22 3.34315 22 5Z"
        fill="black" />
    <path
        d="M22 19C22 20.6569 20.6569 22 19 22C17.3431 22 16 20.6569 16 19C16 17.3431 17.3431 16 19 16C20.6569 16 22 17.3431 22 19Z"
        fill="black" />
    <path
        d="M8 19C8 20.6569 6.65685 22 5 22C3.34315 22 2 20.6569 2 19C2 17.3431 3.34315 16 5 16C6.65685 16 8 17.3431 8 19Z"
        fill="black" />
    <path
        d="M11.482 10.0677L8.41431 7L7.00009 8.41421L10.0678 11.4819C10.2518 10.7937 10.7938 10.2517 11.482 10.0677ZM10.0834 12.5734L7 15.6569L8.41421 17.0711L11.5387 13.9465C10.8424 13.7822 10.2867 13.2539 10.0834 12.5734ZM12.5181 13.9322L15.4854 16.8995L16.8996 15.4853L13.9323 12.518C13.7483 13.2062 13.2063 13.7482 12.5181 13.9322ZM13.9465 11.5387L16.8995 8.58579L15.4853 7.17158L12.5734 10.0834C13.2539 10.2867 13.7822 10.8424 13.9465 11.5387Z"
        fill="black" />
</svg>
