<svg width="24" height="24" viewBox="0 0 24 24" fill="none" xmlns="http://www.w3.org/2000/svg">
<path d="M6.27902 8.42189C6.12248 8.56536 5.9142 8.65155 5.69327 8.66428C5.47233 8.67701 5.25392 8.61542 5.079 8.49105L4.99355 8.42189L2.26624 5.92208C2.10971 5.7786 2.01569 5.5877 2.00179 5.38519C1.9879 5.18269 2.0551 4.98249 2.19079 4.82217L2.26624 4.74384L4.99355 2.24403C5.15009 2.10056 5.35836 2.01438 5.5793 2.00164C5.80024 1.98891 6.01865 2.0505 6.19356 2.17487L6.27902 2.24403L8.74087 4.49969H17.4137L17.6137 4.50386C18.7936 4.55204 19.9077 5.01556 20.724 5.79788C21.5404 6.5802 21.996 7.621 21.996 8.70354C21.996 9.78607 21.5404 10.8269 20.724 11.6092C19.9077 12.3915 18.7936 12.855 17.6137 12.9032L17.4137 12.9065L15.0237 12.9057L12.6427 15.0889C12.4861 15.2322 12.2777 15.3183 12.0568 15.3308C11.8359 15.3434 11.6175 15.2817 11.4427 15.1572L11.3573 15.088L8.97542 12.9057H6.50539L6.3472 12.9107C5.66412 12.949 5.0227 13.2246 4.55377 13.6815C4.08484 14.1384 3.82375 14.742 3.82375 15.3693C3.82375 15.9965 4.08484 16.6002 4.55377 17.057C5.0227 17.5139 5.66412 17.7896 6.3472 17.8278L6.50539 17.832H17.4546V16.1655C17.4546 15.4555 18.351 15.0847 18.9301 15.513L19.0065 15.5763L21.7338 18.0762C21.8903 18.2196 21.9843 18.4105 21.9982 18.613C22.0121 18.8155 21.9449 19.0157 21.8092 19.1761L21.7338 19.2544L19.0065 21.7542C18.4592 22.2567 17.5392 21.9375 17.4601 21.2601L17.4546 21.1651V19.4985H6.50539L6.30993 19.4944C5.15119 19.4466 4.05718 18.9911 3.25563 18.2227C2.45408 17.4542 2.00675 16.432 2.00675 15.3689C2.00675 14.3057 2.45408 13.2835 3.25563 12.5151C4.05718 11.7466 5.15119 11.2911 6.30993 11.2433L6.50539 11.24L8.81451 11.2392L11.3573 8.91019C11.5138 8.76672 11.7221 8.68053 11.943 8.6678C12.164 8.65507 12.3824 8.71666 12.5573 8.84103L12.6427 8.91019L15.1846 11.2392H17.4146L17.5764 11.2358C18.2805 11.197 18.9419 10.9132 19.4255 10.4425C19.9091 9.97183 20.1783 9.34967 20.1783 8.70312C20.1783 8.05657 19.9091 7.43441 19.4255 6.9637C18.9419 6.49299 18.2805 6.20924 17.5764 6.1704L17.4146 6.16623H8.73996L6.27902 8.42189Z" fill="#67718E"/>
</svg>
