<svg width="24" height="24" viewBox="0 0 24 24" fill="none" xmlns="http://www.w3.org/2000/svg">
<path d="M20 12H13V13.5H20V12Z" fill="#67718E"/>
<path d="M20 9.5H13V11H20V9.5Z" fill="#67718E"/>
<path d="M20 14.5H13V16H20V14.5Z" fill="#67718E"/>
<path d="M3 4H21C22.1 4 23 4.9 23 6V19C23 20.1 22.1 21 21 21H3C1.9 21 1 20.1 1 19V6C1 4.9 1.9 4 3 4ZM12 19H21V6H12V19ZM5.75429 17.2143H7.25429V15.7143H5.75429V17.2143ZM5.75429 14.7543H7.25429C7.25429 13.9323 7.7864 13.4658 8.33259 12.9869C8.90847 12.482 9.5 11.9634 9.5 11C9.5 9.34571 8.15429 8 6.5 8C4.84571 8 3.5 9.34571 3.5 11H5C5 10.1771 5.67714 9.5 6.5 9.5C7.32286 9.5 8 10.1771 8 11C8 11.6645 7.5643 11.9997 7.07672 12.3748C6.45735 12.8513 5.75429 13.3922 5.75429 14.7543Z" fill="#67718E"/>
</svg>
