<svg width="24" height="24" viewBox="0 0 24 24" fill="none" xmlns="http://www.w3.org/2000/svg">
<path d="M19.3333 8.4H4.66667V10.2H19.3333V8.4ZM19.3333 12H4.66667V13.8H19.3333V12ZM19.3333 15.6H4.66667V17.4H19.3333V15.6ZM21.1667 4.8H13.8333V6.6H21.1667V19.2H2.83333V6.6H10.1667V4.8H2.83333C2.3471 4.8 1.88079 4.98964 1.53697 5.32721C1.19315 5.66477 1 6.12261 1 6.6L1 19.2C1 19.6774 1.19315 20.1352 1.53697 20.4728C1.88079 20.8104 2.3471 21 2.83333 21H21.1667C21.6529 21 22.1192 20.8104 22.463 20.4728C22.8068 20.1352 23 19.6774 23 19.2V6.6C23 6.12261 22.8068 5.66477 22.463 5.32721C22.1192 4.98964 21.6529 4.8 21.1667 4.8ZM12.9167 6.6H11.0833V3H12.9167V6.6Z" fill="#67718E"/>
</svg>
