<svg width="24" height="24" viewBox="0 0 24 24" fill="none" xmlns="http://www.w3.org/2000/svg">
<path d="M13.7733 5.88235H19V15.2941H12.4667L12.0933 13.4118H6.86667V20H5V4H13.4L13.7733 5.88235ZM13.4 13.4118H15.2667V11.5294H17.1333V9.64706H15.2667V7.76471H13.4V9.64706L12.4667 7.76471V5.88235H10.6V7.76471H8.73333V5.88235H6.86667V7.76471H8.73333V9.64706H6.86667V11.5294H8.73333V9.64706H10.6V11.5294H12.4667V9.64706L13.4 11.5294V13.4118ZM10.6 9.64706V7.76471H12.4667V9.64706H10.6ZM13.4 9.64706H15.2667V11.5294H13.4V9.64706Z" fill="#0072F5"/>
</svg>
