<svg width="24" height="24" viewBox="0 0 24 24" fill="none" xmlns="http://www.w3.org/2000/svg">
<path d="M7.5 6.95C7.19624 6.95 6.95 7.19624 6.95 7.5C6.95 7.80376 7.19624 8.05 7.5 8.05V6.95ZM16.5 8.05C16.8038 8.05 17.05 7.80376 17.05 7.5C17.05 7.19624 16.8038 6.95 16.5 6.95V8.05ZM7.5 9.95C7.19624 9.95 6.95 10.1962 6.95 10.5C6.95 10.8038 7.19624 11.05 7.5 11.05V9.95ZM16.5 11.05C16.8038 11.05 17.05 10.8038 17.05 10.5C17.05 10.1962 16.8038 9.95 16.5 9.95V11.05ZM7.5 12.95C7.19624 12.95 6.95 13.1962 6.95 13.5C6.95 13.8038 7.19624 14.05 7.5 14.05V12.95ZM12 14.05C12.3038 14.05 12.55 13.8038 12.55 13.5C12.55 13.1962 12.3038 12.95 12 12.95V14.05ZM15.75 16.1667V15.6167H15.5409L15.3846 15.7556L15.75 16.1667ZM12 19.5L11.5912 19.8679L11.9569 20.2742L12.3654 19.9111L12 19.5ZM9 16.1667L9.40881 15.7987L9.24495 15.6167H9V16.1667ZM7.5 8.05H16.5V6.95H7.5V8.05ZM7.5 11.05H16.5V9.95H7.5V11.05ZM7.5 14.05H12V12.95H7.5V14.05ZM5.05 14.6667V6H3.95V14.6667H5.05ZM6 5.05H18V3.95H6V5.05ZM18.95 6V14.6667H20.05V6H18.95ZM18 15.6167H15.75V16.7167H18V15.6167ZM15.3846 15.7556L11.6346 19.0889L12.3654 19.9111L16.1154 16.5777L15.3846 15.7556ZM12.4088 19.1321L9.40881 15.7987L8.59119 16.5346L11.5912 19.8679L12.4088 19.1321ZM9 15.6167H6V16.7167H9V15.6167ZM18.95 14.6667C18.95 15.1913 18.5247 15.6167 18 15.6167V16.7167C19.1322 16.7167 20.05 15.7988 20.05 14.6667H18.95ZM18 5.05C18.5247 5.05 18.95 5.47533 18.95 6H20.05C20.05 4.86782 19.1322 3.95 18 3.95V5.05ZM5.05 6C5.05 5.47533 5.47533 5.05 6 5.05V3.95C4.86782 3.95 3.95 4.86782 3.95 6H5.05ZM3.95 14.6667C3.95 15.7989 4.86782 16.7167 6 16.7167V15.6167C5.47533 15.6167 5.05 15.1913 5.05 14.6667H3.95Z" fill="black"/>
</svg>
