<svg width="24" height="24" viewBox="0 0 24 24" fill="none" xmlns="http://www.w3.org/2000/svg">
<path d="M18.7337 13.0534C18.9074 12.3981 19 11.7098 19 11C19 6.584 15.416 3 11 3C6.584 3 3 6.584 3 11C3 15.416 6.584 19 11 19C11.7098 19 12.3981 18.9074 13.0534 18.7337C13.0182 18.4942 13 18.2492 13 18C13 15.2386 15.2386 13 18 13C18.2492 13 18.4942 13.0182 18.7337 13.0534ZM11 7.36364L14.6364 13.1818H7.36364L11 7.36364Z" fill="#67718E"/>
<path d="M21 16.6983L16.6956 21.0028L14 18.3073L15.1886 17.1186L16.6956 18.6256L19.8114 15.5097L21 16.6983Z" fill="#67718E"/>
</svg>
