<svg width="24" height="24" viewBox="0 0 24 24" fill="none" xmlns="http://www.w3.org/2000/svg">
<path d="M10.675 14H7V12H12.125C11.825 12.2833 11.5542 12.5917 11.3125 12.925C11.0708 13.2583 10.8583 13.6167 10.675 14Z" fill="#67718E"/>
<path d="M10.075 18H7V16H10.075C10.025 16.3333 10 16.6667 10 17C10 17.3333 10.025 17.6667 10.075 18Z" fill="#67718E"/>
<path d="M3.5875 21.4125C3.97917 21.8042 4.45 22 5 22H12.125C11.825 21.7167 11.5542 21.4083 11.3125 21.075C11.0708 20.7417 10.8583 20.3833 10.675 20H5V4H12V9H17V10C17.35 10 17.6917 10.025 18.025 10.075C18.3583 10.125 18.6833 10.2 19 10.3V8L13 2H5C4.45 2 3.97917 2.19583 3.5875 2.5875C3.19583 2.97917 3 3.45 3 4V20C3 20.55 3.19583 21.0208 3.5875 21.4125Z" fill="#67718E"/>
<path d="M17 12C14.24 12 12 14.24 12 17C12 19.76 14.24 22 17 22C19.76 22 22 19.76 22 17C22 14.24 19.76 12 17 12ZM16 19.5L13.5 17L14.205 16.295L16 18.085L19.795 14.29L20.5 15L16 19.5Z" fill="#67718E"/>
</svg>
