<svg
  width="24"
  height="24"
  viewBox="0 0 24 24"
  fill="none"
  xmlns="http://www.w3.org/2000/svg"
>
  <g id="general/update">
    <path
      id="Vector"
      d="M12 6.81818C8.99091 6.81818 6.54545 9.26364 6.54545 12.2727H9.27273L5.63636 15.9091L2 12.2727H4.72727C4.72727 8.25455 7.98182 5 12 5C13.4273 5 14.7545 5.41818 15.8727 6.12727L14.5455 7.45455C13.7909 7.04545 12.9182 6.81818 12 6.81818ZM14.7273 12.2727L18.3636 8.63636L22 12.2727H19.2727C19.2727 16.2909 16.0182 19.5455 12 19.5455C10.5727 19.5455 9.24545 19.1273 8.12727 18.4182L9.45455 17.0909C10.2091 17.5 11.0818 17.7273 12 17.7273C15.0091 17.7273 17.4545 15.2818 17.4545 12.2727H14.7273Z"
      fill="#67718E"
    />
  </g>
</svg>
