<svg width="24" height="24" viewBox="0 0 24 24" fill="none" xmlns="http://www.w3.org/2000/svg">
    <path
        d="M13.5 6C13.5 4.34143 14.8414 3 16.5 3C18.1586 3 19.5 4.34143 19.5 6C19.5 8.25 16.5 11.5714 16.5 11.5714C16.5 11.5714 13.5 8.25 13.5 6ZM15.4286 6C15.4286 6.59143 15.9086 7.07143 16.5 7.07143C17.0914 7.07143 17.5714 6.59143 17.5714 6C17.5714 5.40857 17.0914 4.92857 16.5 4.92857C15.9086 4.92857 15.4286 5.40857 15.4286 6Z"
        fill="black" />
    <path
        d="M8.25009 14.25C7.50009 13.5 7.50009 12 9.00009 11.25C10.2001 10.65 9.50009 8.5 9.00009 7.5C8.25009 7.5 5.25 11.25 5.25 12.75C5.25 14.25 6 17.25 6.75 17.25C7.5 17.25 9.00009 15 8.25009 14.25Z"
        fill="black" />
    <path
        d="M12 15.75C10.8 15.75 9.5 18.25 9 19.5L12.75 20.25L15 19.5L17.25 17.25C16.75 17.5 15.45 18 14.25 18C12.75 18 13.5 15.75 12 15.75Z"
        fill="black" />
    <path
        d="M18 13.5C18 16.8137 15.3137 19.5 12 19.5C8.68629 19.5 6 16.8137 6 13.5C6 10.1863 8.68629 7.5 12 7.5V6C7.85786 6 4.5 9.35786 4.5 13.5C4.5 17.6421 7.85786 21 12 21C16.1421 21 19.5 17.6421 19.5 13.5C19.5 12.9863 19.4484 12.4847 19.35 12H17.811C17.9344 12.4794 18 12.982 18 13.5Z"
        fill="black" />
</svg>
