<svg width="24" height="24" viewBox="0 0 24 24" fill="none" xmlns="http://www.w3.org/2000/svg">
<path d="M19.4445 5.34824C18.1289 4.46919 16.5822 4 15 4C12.8782 4 10.8434 4.84285 9.34313 6.34315C7.84284 7.84344 6.99998 9.87827 6.99998 12C6.99998 13.5823 7.46917 15.129 8.34822 16.4446C9.22727 17.7602 10.4767 18.7855 11.9385 19.391C13.4003 19.9965 15.0089 20.155 16.5607 19.8463C18.1126 19.5376 19.538 18.7757 20.6568 17.6569C21.7757 16.538 22.5376 15.1126 22.8463 13.5607C23.1549 12.0089 22.9965 10.4003 22.391 8.93853C21.7855 7.47672 20.7601 6.22729 19.4445 5.34824ZM15 8L19.5 14H10.5L15 8Z" fill="#67718E"/>
<path d="M4.10298 15.46C3.38672 14.4483 3.0014 13.2396 2.99998 12C3.0014 10.7604 3.38672 9.55167 4.10298 8.53995C4.81924 7.52824 5.83128 6.7632 6.99998 6.35V4.26C5.28799 4.70746 3.77265 5.70989 2.69113 7.11041C1.60962 8.51093 1.02295 10.2305 1.02295 12C1.02295 13.7695 1.60962 15.4891 2.69113 16.8896C3.77265 18.2901 5.28799 19.2925 6.99998 19.74V17.65C5.83128 17.2368 4.81924 16.4718 4.10298 15.46Z" fill="#67718E"/>
</svg>
