<svg width="24" height="24" viewBox="0 0 24 24" fill="none" xmlns="http://www.w3.org/2000/svg">
<g id="time / operating hours">
<path id="Shape" d="M12 2C6.47715 2 2 6.47715 2 12C2 14.6522 3.05357 17.1957 4.92893 19.0711C6.8043 20.9464 9.34784 22 12 22C14.6522 22 17.1957 20.9464 19.0711 19.0711C20.9464 17.1957 22 14.6522 22 12C22 9.34784 20.9464 6.8043 19.0711 4.92893C17.1957 3.05357 14.6522 2 12 2ZM12 20C7.58172 20 4 16.4183 4 12C4 7.58172 7.58172 4 12 4C14.1217 4 16.1566 4.84285 17.6569 6.34315C19.1571 7.84344 20 9.87827 20 12C20 16.4183 16.4183 20 12 20ZM12 6C13.53 6 15.07 6.58 16.24 7.76C18.59 10.1 18.59 13.9 16.24 16.24C13.9 18.58 10.1 18.58 7.76 16.24L12 12V6Z" fill="#67718E"/>
</g>
</svg>
