<svg width="24" height="24" viewBox="0 0 24 24" fill="none" xmlns="http://www.w3.org/2000/svg">
<path d="M5.33333 6.33333H7V16.3333H5.33333V6.33333Z" fill="#67718E"/>
<path d="M7.83333 6.33333H8.66667V16.3333H7.83333V6.33333Z" fill="#67718E"/>
<path d="M9.5 6.33333H12V16.3333H9.5V6.33333Z" fill="#67718E"/>
<path d="M12.8333 6.33333H13.6667V16.3333H12.8333V6.33333Z" fill="#67718E"/>
<path d="M15.3333 6.33333H17V13.6276L15.3333 15.2942V6.33333Z" fill="#67718E"/>
<path d="M17.8333 12.7942L18.6667 11.9609V6.33333H17.8333V12.7942Z" fill="#67718E"/>
<path d="M3.66667 4.66667V8H2V4.66667C2 4.22464 2.17559 3.80072 2.48816 3.48816C2.80072 3.17559 3.22464 3 3.66667 3H7V4.66667H3.66667Z" fill="#67718E"/>
<path d="M20.3333 3C20.7754 3 21.1993 3.17559 21.5118 3.48816C21.8244 3.80072 22 4.22464 22 4.66667V8H20.3333V4.66667H17V3H20.3333Z" fill="#67718E"/>
<path d="M3.66667 14.6667V18H7V19.6667H3.66667C3.22464 19.6667 2.80072 19.4911 2.48816 19.1785C2.17559 18.8659 2 18.442 2 18V14.6667H3.66667Z" fill="#67718E"/>
<path d="M16 18.0028V19.667H19.7443L18.2882 21.1231L19.295 22.1299L22.59 18.8349L19.295 15.5399L18.2882 16.5467L19.7443 18.0028H16Z" fill="#67718E"/>
</svg>
