<svg width="24" height="24" viewBox="0 0 24 24" fill="none" xmlns="http://www.w3.org/2000/svg">
  <path d="M11 3C6.584 3 3 6.584 3 11C3 15.416 6.584 19 11 19C11.709 19 12.3966 18.9076 13.0513 18.7342C13.0175 18.4994 13 18.2593 13 18.0151C13 15.2537 15.2386 13.0151 18 13.0151C18.2479 13.0151 18.4916 13.0332 18.7298 13.068C18.906 12.4083 19 11.715 19 11C19 6.584 15.416 3 11 3ZM11 14.6364L7.36364 8.81818H14.6364L11 14.6364Z" fill="#67718E"/>
  <path d="M17.932 14.636L14.75 17.818L17.932 21L18.9927 19.9393L17.6894 18.636H21V17.136H17.5533L18.9927 15.6967L17.932 14.636Z" fill="#67718E"/>
</svg>
