<svg width="24" height="24" viewBox="0 0 24 24" fill="none" xmlns="http://www.w3.org/2000/svg">
  <path d="M19.5 3.5L18 2L16.5 3.5L15 2L13.5 3.5L12 2L10.5 3.5L9 2L7.5 3.5L6 2L4.5 3.5L3 2V22L4.5 20.5L6 22L7.5 20.5L9 22L10.5 20.5L12 22L13.26 20.74C13.09 20.18 13 19.59 13 19C13 18.32 13.12 17.64 13.34 17H6V15H14.53C15.67 13.73 17.29 13 19 13C19.68 13 20.36 13.12 21 13.34V2L19.5 3.5ZM18 13H6V11H18V13ZM18 9H6V7H18V9Z" fill="#67718E"/>
  <path d="M23 17L18.0806 21.9195L15 18.8388L16.3584 17.4804L18.0806 19.2026L21.6416 15.6416L23 17Z" fill="#67718E"/>
</svg>
