<svg width="24" height="24" viewBox="0 0 24 24" fill="none" xmlns="http://www.w3.org/2000/svg">
<path d="M16.7339 3.55583C17.01 3.07754 17.6216 2.91366 18.0999 3.18981L22.43 5.68981L19.93 10.0199C19.6539 10.4982 19.0423 10.6621 18.564 10.386C18.0857 10.1098 17.9218 9.49823 18.198 9.01993L19.0839 7.48549C18.9061 7.5464 18.73 7.61294 18.5558 7.68506C17.4639 8.13735 16.4718 8.80028 15.636 9.63601C14.8003 10.4717 14.1374 11.4639 13.6851 12.5558C13.6468 12.6482 13.6101 12.7412 13.575 12.8346C13.4425 12.3503 13.2795 11.8737 13.0866 11.4078C12.9338 11.039 12.763 10.6787 12.575 10.3282C13.0352 9.56343 13.5878 8.85578 14.2218 8.2218C15.2433 7.20035 16.4559 6.3901 17.7905 5.8373C17.968 5.76375 18.1473 5.69495 18.3281 5.63093L17.0999 4.92186C16.6216 4.64571 16.4577 4.03412 16.7339 3.55583Z" fill="#67718E"/>
<path d="M12.8323 14.0867C12.8323 14.0867 12.8323 14.0867 12.8323 14.0867C12.5638 14.0299 12.2854 14 12 14C11.587 14 11.1886 14.0626 10.8138 14.1788C10.6993 13.6246 10.5325 13.0812 10.3149 12.5558C9.86262 11.4639 9.19969 10.4718 8.36396 9.63604C7.52823 8.80031 6.53608 8.13738 5.44415 7.68508C4.35222 7.23279 3.1819 7 2 7V5C3.44454 5 4.87494 5.28452 6.20952 5.83733C7.5441 6.39013 8.75673 7.20038 9.77818 8.22183C10.7036 9.14725 11.4557 10.2296 12 11.4174C12 11.4174 12 11.4174 12 11.4174C12.0565 11.5406 12.1107 11.665 12.1627 11.7905C12.2729 12.0566 12.3725 12.3265 12.4612 12.5996C12.6195 13.0865 12.7434 13.5834 12.8323 14.0867Z" fill="#67718E"/>
<path d="M13.0371 15.1841C13.0141 15.1756 12.991 15.1674 12.9678 15.1595C12.9678 15.1595 12.9678 15.1595 12.9678 15.1595C14.1498 15.5621 15 16.6818 15 18C15 19.6569 13.6569 21 12 21C10.3431 21 9 19.6569 9 18C9 16.7077 9.81715 15.6062 10.9629 15.1841C10.9859 15.1756 11.009 15.1675 11.0321 15.1596C11.0321 15.1596 11.0321 15.1596 11.0321 15.1596C11.3358 15.0561 11.6614 15 12.0001 15C12.3646 15 12.7139 15.065 13.0371 15.1841Z" fill="#67718E"/>
</svg>
