<svg width="24" height="24" viewBox="0 0 24 24" fill="none" xmlns="http://www.w3.org/2000/svg">
<path d="M19.3333 8.4H13.8333V10.2H19.3333V8.4ZM19.3333 12H13.8333V13.8H19.3333V12ZM19.3333 15.6H13.8333V17.4H19.3333V15.6ZM21.1667 4.8H13.8333V6.6H21.1667V19.2H2.83333V6.6H10.1667V4.8H2.83333C2.3471 4.8 1.88079 4.98964 1.53697 5.32721C1.19315 5.66477 1 6.12261 1 6.6V19.2C1 19.6774 1.19315 20.1352 1.53697 20.4728C1.88079 20.8104 2.3471 21 2.83333 21H21.1667C21.6529 21 22.1192 20.8104 22.463 20.4728C22.8068 20.1352 23 19.6774 23 19.2V6.6C23 6.12261 22.8068 5.66477 22.463 5.32721C22.1192 4.98964 21.6529 4.8 21.1667 4.8ZM12.9167 6.6H11.0833V3H12.9167V6.6Z" fill="#67718E"/>
<path d="M5.2611 10.6035C4.84859 11.4374 4.81619 12.2552 5.09959 13.1148C5.38299 13.9744 5.98796 14.5457 6.85019 14.8863L10.4428 16.3057C10.6224 16.3767 10.8305 16.3758 11.0309 16.2889C11.2314 16.202 11.3742 16.0507 11.4452 15.8711L11.5588 15.5837C11.6439 15.3681 11.7074 15.1025 11.7992 14.7649L8.85323 13.601C8.49397 13.4591 8.26334 13.2018 8.11122 12.851C7.95909 12.5001 7.94313 12.12 8.07088 11.7967C8.29798 11.2219 8.7056 10.926 9.32966 10.9234L11.3522 10.8503C10.9118 10.1779 10.2926 9.64249 9.4805 9.2801C8.71851 8.89598 7.90063 8.86358 7.05524 9.11105C6.20986 9.35852 5.64522 9.84152 5.2611 10.6035ZM8.7894 12.0806C8.73263 12.2243 8.7477 12.3964 8.8129 12.5467C8.8781 12.6971 8.99341 12.8257 9.13712 12.8825L11.9394 13.9896C12.0361 13.1141 11.9682 12.3397 11.6999 11.6522L9.36158 11.6836C9.0817 11.6561 8.90296 11.7932 8.7894 12.0806Z" fill="#67718E"/>
<path d="M9.5 16.75L6 15.25V16.75H9.5Z" fill="#67718E"/>
</svg>
