<svg width="24" height="24" viewBox="0 0 24 24" fill="none" xmlns="http://www.w3.org/2000/svg">
<path d="M14.1023 8.51616C13.0139 7.57165 11.5933 7 10.0391 7C6.61374 7 3.83694 9.77681 3.83694 13.2022C3.83694 16.6275 6.61374 19.4043 10.0391 19.4043C11.5933 19.4043 13.0139 18.8327 14.1023 17.8882C13.5664 17.2953 13.1308 16.6102 12.822 15.8595C13.039 15.6321 13.2283 15.378 13.3842 15.1025C14.1866 17.5983 16.5273 19.4043 19.2898 19.4043C21.1743 19.4043 22.8625 18.5639 24 17.2373L22.0523 15.5687C21.3919 16.34 20.4111 16.8289 19.3161 16.8289C17.3276 16.8289 15.7157 15.2169 15.7157 13.2285C15.7157 11.24 17.3276 9.62804 19.3161 9.62804C20.3346 9.62804 21.2543 10.051 21.9092 10.7308L23.801 8.94588C22.6702 7.74776 21.0673 7 19.2898 7C16.5149 7 14.1656 8.82237 13.3734 11.3356C13.216 11.061 13.0253 10.8079 12.8069 10.5817C13.1165 9.81657 13.5577 9.1187 14.1023 8.51616ZM13.299 14.8135C13.1504 15.1161 12.9606 15.3948 12.7369 15.6422C12.6242 15.7669 12.5028 15.8837 12.3738 15.9915C12.1815 15.7656 11.9563 15.5687 11.7055 15.408C12.0394 14.7796 12.2334 14.0655 12.246 13.3073H13.0885C13.0971 13.8275 13.1698 14.3321 13.299 14.8135ZM13.0885 13.097H12.2448C12.2239 12.3426 12.0234 11.6331 11.6844 11.0097C11.9322 10.8539 12.1555 10.6628 12.3474 10.4435C12.481 10.553 12.6065 10.6721 12.7231 10.7995C12.9482 11.0457 13.1396 11.3233 13.2899 11.625C13.1664 12.0962 13.0969 12.5892 13.0885 13.097ZM12.1807 10.3146C12.006 10.5125 11.8037 10.6853 11.5797 10.8271C11.3139 10.387 10.9772 9.99445 10.5855 9.66533C11.1757 9.75072 11.7195 9.97927 12.1807 10.3146ZM10.1995 9.63049C10.6807 9.97944 11.0892 10.4226 11.3979 10.9328C11.0374 11.1246 10.6297 11.2394 10.1968 11.2555V9.63039L10.1995 9.63049ZM9.98655 9.62888V11.2555C9.55364 11.2394 9.14597 11.1246 8.78544 10.9328C9.09459 10.4218 9.50383 9.97809 9.986 9.6289L9.98655 9.62888ZM9.60802 9.65681C9.21194 9.98767 8.87174 10.3832 8.60363 10.8271C8.37095 10.6798 8.16161 10.499 7.98238 10.2914C8.45299 9.95705 9.00743 9.73296 9.60802 9.65681ZM7.82464 10.4101C7.82118 10.4129 7.81773 10.4156 7.81428 10.4184C8.01093 10.6482 8.24178 10.848 8.49893 11.0097C8.15998 11.6331 7.95942 12.3426 7.9385 13.097H6.46733C6.50635 12.0092 7.02801 11.0443 7.82464 10.4101ZM6.46582 13.3073H7.93733C7.94993 14.0655 8.14395 14.7796 8.47787 15.408C8.21765 15.5747 7.9849 15.7805 7.78793 16.0172C6.99935 15.3724 6.48929 14.3997 6.46582 13.3073ZM7.94779 16.1406L7.95462 16.1456C8.13412 15.9311 8.34528 15.7442 8.58091 15.5918C8.85242 16.0512 9.20067 16.4598 9.60802 16.8001C8.99265 16.7221 8.42573 16.4887 7.94779 16.1406ZM9.98655 16.828L9.986 16.828C9.49137 16.4698 9.07347 16.0121 8.76166 15.4843C9.12801 15.2849 9.54409 15.1653 9.98655 15.1489V16.828ZM10.1968 16.8265V15.1489C10.6392 15.1653 11.0553 15.2849 11.4217 15.4843C11.1103 16.0113 10.6932 16.4684 10.1995 16.8264L10.1968 16.8265ZM10.5855 16.7916C10.9885 16.453 11.3332 16.0473 11.6024 15.5918C11.8293 15.7385 12.0335 15.9173 12.2086 16.1218C11.7415 16.4683 11.1876 16.7045 10.5855 16.7916ZM11.5243 15.3008C11.1276 15.0844 10.6765 14.955 10.1968 14.9385V13.3073H12.0357C12.0232 14.0264 11.8398 14.7039 11.5243 15.3008ZM9.98655 14.9385C9.50683 14.955 9.05575 15.0844 8.65902 15.3008C8.34355 14.7039 8.16012 14.0264 8.14761 13.3073H9.98655V14.9385ZM11.5025 11.1154C11.8235 11.7076 12.0137 12.3811 12.0345 13.097H10.1968V11.4659C10.6677 11.4496 11.1111 11.3247 11.5025 11.1154ZM9.98655 11.4659V13.097H8.14883C8.16963 12.3811 8.35987 11.7076 8.68084 11.1154C9.07226 11.3247 9.5156 11.4496 9.98655 11.4659Z" fill="#67718E"/>
<path d="M2.62804 7.31536H0V19.089H2.62804V7.31536Z" fill="#67718E"/>
</svg>
