<svg width="24" height="24" viewBox="0 0 24 24" fill="none" xmlns="http://www.w3.org/2000/svg">
<path d="M21 6.94999C22.1411 6.71836 23 5.70948 23 4.5C23 3.11929 21.8807 2 20.5 2C19.2905 2 18.2816 2.85888 18.05 4C18.0461 4.01907 18.0425 4.03823 18.039 4.05746C18.0134 4.2011 18 4.34898 18 4.5C18 5.88071 19.1193 7 20.5 7C20.6712 7 20.8384 6.98278 21 6.94999Z" fill="#0072F5"/>
<path d="M4.8 4H17.0354C17.0121 4.1633 17 4.33024 17 4.5C17 6.433 18.567 8 20.5 8C20.6698 8 20.8367 7.98791 21 7.96456V16.6C21 17.0774 20.8104 17.5352 20.4728 17.8728C20.1352 18.2104 19.6774 18.4 19.2 18.4H6.6L3 22V5.8C3 5.32261 3.18964 4.86477 3.52721 4.52721C3.86477 4.18964 4.32261 4 4.8 4ZM6.6 10.3V12.1H17.4V10.3H6.6ZM13.8 14.8V13H6.6V14.8H13.8ZM17.4 9.4V7.6H6.6V9.4H17.4Z" fill="#0072F5"/>
</svg>
