<svg width="24" height="24" viewBox="0 0 24 24" fill="none" xmlns="http://www.w3.org/2000/svg">
<path d="M1.48525 10.5312C1.00918 10.2646 0.866356 9.68381 1.13296 9.22678L2.56117 6.76072C2.66591 6.57029 2.82777 6.43699 3.00868 6.36082L10.464 2.17139C10.6163 2.05713 10.8067 2 11.0067 2C11.2066 2 11.3971 2.05713 11.5494 2.17139L19.0714 6.39891C19.2523 6.49412 19.4046 6.64647 19.4903 6.83689L20.8709 9.2363C21.1375 9.69333 20.9756 10.2741 20.5281 10.5312L19.576 11.0835V13.1052C19.228 13.0362 18.8682 13 18.5 13C18.2185 13 17.9419 13.0212 17.6717 13.062V12.1784L12.911 14.9396C12.5968 15.111 12.2445 15.1015 11.9588 14.9492V18.4626L13.0374 17.855C13.0127 18.0665 13 18.2818 13 18.5C13 19.0011 13.067 19.4866 13.1926 19.948L11.5494 20.8715C11.3971 20.9858 11.2066 21.0429 11.0067 21.0429C10.8067 21.0429 10.6163 20.9858 10.464 20.8715L2.94203 16.644C2.63734 16.4821 2.43739 16.1679 2.43739 15.8061V10.5312C2.15175 10.6931 1.78994 10.7026 1.48525 10.5312ZM11.0067 10.4265L16.6815 7.23679L11.0067 4.04711V10.4265ZM10.0546 18.4626V12.0737L4.34168 8.86496V15.2443L10.0546 18.4626Z" fill="#67718E"/>
<path d="M19.4166 14.8333H17.5833V17.5833H14.8333V19.4166H17.5833V22.1666H19.4166V19.4166H22.1666V17.5833H19.4166V14.8333Z" fill="#67718E"/>
</svg>
