<svg width="24" height="24" viewBox="0 0 24 24" fill="none" xmlns="http://www.w3.org/2000/svg">
<path d="M10.3333 4V5.78421L12 6.83421V5.57895H20.3333V17.4211H16.1667V19H22V4H10.3333ZM8.25 6.36842L2 10.3158V19H14.5V10.3158L8.25 6.36842ZM13.6667 7.15789V7.89211L15.0083 8.73684H15.3333V7.15789H13.6667ZM17 7.15789V8.73684H18.6667V7.15789H17ZM8.25 8.34211L12.8333 11.1053V17.4211H10.3333V12.6842H6.16667V17.4211H3.66667V11.1053L8.25 8.34211ZM17 10.3158V11.8947H18.6667V10.3158H17ZM17 13.4737V15.0526H18.6667V13.4737H17Z" fill="#67718E"/>
</svg>
