<svg width="24" height="24" viewBox="0 0 24 24" fill="none" xmlns="http://www.w3.org/2000/svg">
<path d="M14.381 11.5238H15.8095V15.5714L18.5333 17.181L17.819 18.3429L14.381 16.2857V11.5238ZM22 15.3333C22 17.1014 21.2976 18.7971 20.0474 20.0474C18.7971 21.2976 17.1014 22 15.3333 22C12.4762 22 10 20.1714 9.06667 17.619L7.71429 17.1429L2.62857 19.1143L2.47619 19.1429C2.3499 19.1429 2.22878 19.0927 2.13947 19.0034C2.05017 18.9141 2 18.793 2 18.6667V4.26667C2 4.04762 2.14286 3.87619 2.34286 3.80952L7.71429 2L13.4286 4L18.5143 2H18.6667C18.793 2 18.9141 2.05017 19.0034 2.13947C19.0927 2.22878 19.1429 2.3499 19.1429 2.47619V9.85714C20.8667 11.0476 22 13.0667 22 15.3333ZM8.66667 15.3333C8.66667 12.3143 10.6762 9.7619 13.4286 8.94286V5.91429L7.71429 3.90476V15.2286L8.66667 15.5619C8.66667 15.4857 8.66667 15.4095 8.66667 15.3333ZM15.3333 10.5714C14.0704 10.5714 12.8592 11.0731 11.9662 11.9662C11.0731 12.8592 10.5714 14.0704 10.5714 15.3333C10.5714 16.5963 11.0731 17.8075 11.9662 18.7005C12.8592 19.5935 14.0704 20.0952 15.3333 20.0952C16.5963 20.0952 17.8075 19.5935 18.7005 18.7005C19.5935 17.8075 20.0952 16.5963 20.0952 15.3333C20.0952 14.0704 19.5935 12.8592 18.7005 11.9662C17.8075 11.0731 16.5963 10.5714 15.3333 10.5714Z" fill="black"/>
</svg>
