<svg width="24" height="24" viewBox="0 0 24 24" fill="none" xmlns="http://www.w3.org/2000/svg">
<path d="M13 7.5L16.47 11L23 4.41L21.6 3L16.47 8.17L14.4 6.09L13 7.5Z" fill="#67718E"/>
<path d="M16.92 12C16.97 12.33 17 12.66 17 13C17 16.9 13.9 20 10 20C6.1 20 3 16.9 3 13C3 9.1 6.1 6 10 6C10.7 6 11.37 6.1 12 6.29V4.23C11.36 4.08 10.69 4 10 4C5 4 1 8 1 13C1 18 5 22 10 22C15 22 19 18 19 13C19 12.66 18.98 12.33 18.94 12H16.92Z" fill="#67718E"/>
<path d="M9 8V14L13.7 16.9L14.5 15.7L10.5 13.3V8H9Z" fill="#67718E"/>
</svg>
