<svg width="24" height="24" viewBox="0 0 24 24" fill="none" xmlns="http://www.w3.org/2000/svg">
<path d="M22 11.9999C22 12.5304 21.7893 13.0391 21.4142 13.4141C21.0391 13.7892 20.5304 13.9999 20 13.9999C19.4696 13.9999 18.9609 13.7892 18.5858 13.4141C18.2107 13.0391 18 12.5304 18 11.9999C18 11.4695 18.2107 10.9608 18.5858 10.5857C18.9609 10.2106 19.4696 9.99992 20 9.99992C20.5304 9.99992 21.0391 10.2106 21.4142 10.5857C21.7893 10.9608 22 11.4695 22 11.9999ZM2 10.9999L13 10.9999L8.5 6.49992L9.92 5.07992L16.84 11.9999L9.92 18.9199L8.5 17.4999L13 12.9999L2 12.9999L2 10.9999Z" fill="#67718E"/>
</svg>
