<svg width="24" height="24" viewBox="0 0 24 24" fill="none" xmlns="http://www.w3.org/2000/svg">
<path d="M4 3C3.73478 3 3.48043 3.10536 3.29289 3.29289C3.10536 3.48043 3 3.73478 3 4C3 8.50868 4.79107 12.8327 7.97918 16.0208C11.1673 19.2089 15.4913 21 20 21C20.2652 21 20.5196 20.8946 20.7071 20.7071C20.8946 20.5196 21 20.2652 21 20V16.5C21 16.2348 20.8946 15.9804 20.7071 15.7929C20.5196 15.6054 20.2652 15.5 20 15.5C18.75 15.5 17.55 15.3 16.43 14.93C16.08 14.82 15.69 14.9 15.41 15.17L13.21 17.37C10.38 15.93 8.06 13.62 6.62 10.78L8.82 8.57C9.1 8.31 9.18 7.92 9.07 7.57C8.7 6.45 8.5 5.25 8.5 4C8.5 3.73478 8.39464 3.48043 8.20711 3.29289C8.01957 3.10536 7.76522 3 7.5 3H4Z" fill="#67718E"/>
<path d="M16 3H18V6H21V8H18V11H16V8H13V6H16V3Z" fill="#67718E"/>
</svg>
