<svg width="24" height="24" viewBox="0 0 24 24" fill="none" xmlns="http://www.w3.org/2000/svg">
  <path
    d="M4.17178 11C4.1551 10.7368 4.14616 10.467 4.14616 10.1908C4.1472 8.2589 4.32491 2.38177 12.2394 2.01701C12.4913 2.00551 12.7401 2 12.9836 2C18.1759 2 21.5192 4.58938 21.5192 8.80436C21.5192 9.1368 21.2495 9.17547 20.917 9.17547H16.3676C14.8685 9.17547 14.7065 10.3285 14.7065 10.824C14.7065 13.0463 14.0856 14.7169 12.8805 15.8027C12.3256 13.0626 9.90369 11 7 11H4.17178Z"
    fill="#67718E"/>
  <path
    d="M12.9406 17.8476C12.713 19.4574 11.8465 20.8618 10.6059 21.796C11.586 21.9564 12.4902 22 13.1842 22C13.9703 22 14.4867 21.9446 14.5411 21.9383C14.7983 21.909 15 21.7209 15.0575 21.4783L12.9406 17.8476Z"
    fill="#67718E"/>
  <path
    d="M13.8062 16.4042C15.1129 15.1027 15.7767 13.2252 15.7767 10.8239C15.7767 10.2845 15.9994 10.2458 16.3674 10.2458H19.9927V11.4145L21.9288 15.0295C22.0281 15.2156 22.0239 15.4414 21.9141 15.6233C21.8054 15.8052 21.6089 15.916 21.3977 15.916H19.9927V18.1384C19.9927 19.4117 18.9578 20.4466 17.6846 20.4466H15.6952L13.502 16.6842C13.6055 16.5943 13.7079 16.5014 13.8062 16.4042ZM17.9574 12.668C18.3265 12.668 18.6254 12.3691 18.6254 12.0001C18.6254 11.631 18.3265 11.3321 17.9574 11.3321C17.5884 11.3321 17.2894 11.631 17.2894 12.0001C17.2894 12.3691 17.5884 12.668 17.9574 12.668Z"
    fill="#67718E"/>
  <path
    d="M2 17C2 14.792 3.792 13 6 13C8.208 13 10 14.792 10 17C10 19.208 8.208 21 6 21C3.792 21 2 19.208 2 17ZM4.18182 15.9091L6 18.8182L7.81818 15.9091H4.18182Z"
    fill="#67718E"/>
</svg>
