<svg width="24" height="24" viewBox="0 0 24 24" fill="none" xmlns="http://www.w3.org/2000/svg">
<path d="M9.258 13.7921C8.2985 12.9362 7.073 12.4892 5.8 12.4607V15.3136L2 11.5097L5.8 7.70584V10.5588C7.3865 10.5588 8.935 11.1008 10.1985 12.0708C9.809 12.6034 9.4955 13.1834 9.258 13.7921ZM17.2 15.3136V12.4607C16.725 12.4607 12.925 12.6129 12.4975 16.4548C13.9795 16.9778 14.7585 18.6135 14.236 20.097C13.7135 21.5805 12.0795 22.3603 10.5975 21.8373C9.125 21.3048 8.3365 19.6786 8.859 18.1951C9.125 17.3772 9.79 16.7401 10.5975 16.4548C10.873 13.0408 13.78 10.4446 17.2 10.5588V7.70584L21 11.5097L17.2 15.3136ZM12.45 19.1175C12.45 18.8653 12.3499 18.6234 12.1718 18.4451C11.9936 18.2667 11.752 18.1665 11.5 18.1665C11.248 18.1665 11.0064 18.2667 10.8282 18.4451C10.6501 18.6234 10.55 18.8653 10.55 19.1175C10.55 19.3697 10.6501 19.6116 10.8282 19.79C11.0064 19.9683 11.248 20.0685 11.5 20.0685C11.752 20.0685 11.9936 19.9683 12.1718 19.79C12.3499 19.6116 12.45 19.3697 12.45 19.1175ZM10.55 11.6238C11.101 10.9962 11.7375 10.4542 12.45 10.0167V5.80389H15.3L11.5 2L7.7 5.80389H10.55V11.6238Z" fill="black"/>
</svg>
