<svg width="24" height="24" viewBox="0 0 24 24" fill="none" xmlns="http://www.w3.org/2000/svg">
<g id="Diversion">
<g id="Union">
<path d="M20 9C21.1046 9 22 8.10457 22 7C22 5.89543 21.1046 5 20 5C18.8954 5 18 5.89543 18 7C18 8.10457 18.8954 9 20 9Z" fill="#67718E"/>
<path d="M6 11L2 11V13L6 13C7.01667 13 7.75417 13.1667 8.2125 13.5C8.67083 13.8333 9.14167 14.2667 9.625 14.8C10.2583 15.5 11.0792 16.2 12.0875 16.9C13.6792 17.9083 15.7917 17.9667 18.175 18L16.6 19.6L18 21L22 17L18 13L16.6 14.425L18.175 16C18.0423 15.9977 17.9104 15.9957 17.7794 15.9937C16.0169 15.9672 14.4066 15.9429 13.15 15.175C12.3833 14.6583 11.7083 14.0833 11.125 13.45C10.8917 13.2 10.6542 12.9542 10.4125 12.7125C10.1708 12.4708 9.89167 12.2333 9.575 12C9.80833 11.8167 10.0292 11.6333 10.2375 11.45C10.4458 11.2667 10.6417 11.075 10.825 10.875L9.4 9.45C8.96667 9.91667 8.525 10.2917 8.075 10.575C7.625 10.8583 6.93333 11 6 11Z" fill="#67718E"/>
<path d="M15.925 6.0625C15.525 6.0875 15.1583 6.13333 14.825 6.2L15.3 8.15C15.5667 8.11667 15.8542 8.08333 16.1625 8.05C16.4708 8.01667 16.8 8 17.15 8L17.175 7V6C16.7417 6.01667 16.325 6.0375 15.925 6.0625Z" fill="#67718E"/>
<path d="M11.65 7.3875C11.1833 7.69583 10.775 8.01667 10.425 8.35L11.85 9.775C12.1 9.525 12.3833 9.29167 12.7 9.075C13.0167 8.85833 13.4 8.66667 13.85 8.5L13.375 6.575C12.6917 6.80833 12.1167 7.07917 11.65 7.3875Z" fill="#67718E"/>
</g>
</g>
</svg>
