<svg width="24" height="24" viewBox="0 0 24 24" fill="none" xmlns="http://www.w3.org/2000/svg">
<path d="M14.6667 4H20V9.33333H14.6667V4ZM11.1111 5.77778H12.8889V9.33333H11.1111V5.77778ZM4 11.1111H5.77778V12.8889H4V11.1111ZM11.1111 14.6667H12.8889V11.1111H9.33333V12.8889H11.1111V14.6667ZM14.6667 11.1111H16.4444V12.8889H14.6667V11.1111ZM18.2222 12.8889V14.6667H20V18.2222H18.2222V20H16.4444V18.2222H12.8889V20H11.1111V16.4444H14.6667V14.6667H16.4444V12.8889H18.2222ZM18.2222 12.8889V11.1111H20V12.8889H18.2222ZM18.2222 14.6667H16.4444V18.2222H18.2222V14.6667ZM16.4444 7.55556H18.2222V5.77778H16.4444V7.55556ZM4 4H9.33333V9.33333H4V4ZM5.77778 7.55556H7.55556V5.77778H5.77778V7.55556ZM4 14.6667H9.33333V20H4V14.6667ZM5.77778 18.2222H7.55556V16.4444H5.77778V18.2222Z" fill="#67718E"/>
</svg>
