<svg width="24" height="24" viewBox="0 0 24 24" fill="none" xmlns="http://www.w3.org/2000/svg">
<path d="M11.5531 17.3116L13.9826 21.4783C13.9251 21.7209 13.7233 21.909 13.4661 21.9383C13.4118 21.9446 12.8954 22 12.1093 22C10.8151 22 8.79031 21.8484 6.90443 21.0707C6.67863 20.9776 6.53124 20.7581 6.53124 20.5145V18.3631H7.13337C8.89481 18.3631 10.3739 18.0088 11.5533 17.3115L11.5531 17.3116ZM12.7313 16.4042C14.038 15.1027 14.7018 13.2252 14.7018 10.8239C14.7018 10.2845 14.9244 10.2458 15.2924 10.2458H18.9178V11.4145L20.8538 15.0295C20.9531 15.2156 20.9489 15.4414 20.8392 15.6233C20.7305 15.8052 20.5339 15.916 20.3228 15.916H18.9178V18.1384C18.9178 19.4117 17.8829 20.4466 16.6096 20.4466H14.6203L12.4271 16.6842C12.5306 16.5943 12.633 16.5013 12.7313 16.4041L12.7313 16.4042ZM16.8825 12.668C17.2515 12.668 17.5505 12.3691 17.5505 12.0001C17.5505 11.631 17.2515 11.3321 16.8825 11.3321C16.5135 11.3321 16.2145 11.631 16.2145 12.0001C16.2145 12.3691 16.5135 12.668 16.8825 12.668ZM11.1644 2.01673C11.4163 2.00523 11.6651 2 11.9087 2C17.1009 2 20.4442 4.58938 20.4442 8.80436C20.4442 9.1368 20.1745 9.17547 19.8421 9.17547H15.2926C13.7936 9.17547 13.6316 10.3285 13.6316 10.824C13.6316 14.9667 11.4739 17.1924 7.39587 17.2856C7.30806 17.2877 7.22339 17.2939 7.13349 17.2939H5.55708C5.35427 17.2939 5.16508 17.1915 5.05321 17.0221C4.98004 16.9103 3.07121 14.2269 3.07121 10.1908C3.07225 8.2589 3.24996 2.38177 11.1644 2.01701L11.1644 2.01673ZM10.3082 14.9594C10.6772 14.9594 10.9762 14.6604 10.9762 14.2914C10.9762 13.9224 10.6772 13.6234 10.3082 13.6234C9.9392 13.6234 9.64022 13.9224 9.64022 14.2914C9.64022 14.6604 9.9392 14.9594 10.3082 14.9594Z" fill="#67718E"/>
</svg>
