<svg width="24" height="24" viewBox="0 0 24 24" fill="none" xmlns="http://www.w3.org/2000/svg">
<path d="M11.836 13.7733L11.3004 13.9226L11.3594 13.394H10.9827L11.0417 13.9226L10.5174 13.7733L10.461 14.1327L10.9462 14.17L10.6285 14.5971L10.9671 14.7681L11.1641 14.321L11.3881 14.7707L11.7145 14.5971L11.3941 14.17L11.882 14.1361L11.836 13.7733ZM17.146 2H6.8509C6.30924 2 5.87 2.43924 5.87 2.98091V21.02C5.87 21.5616 6.30924 22 6.8509 22H17.146C17.6876 22 18.1269 21.5608 18.1269 21.02V2.98091C18.1269 2.43924 17.6876 2 17.146 2ZM10.4784 2.78471C10.4784 2.6762 10.5661 2.58853 10.6746 2.58853H13.2242C13.3327 2.58853 13.4204 2.6762 13.4204 2.78471V3.17706C13.4204 3.28557 13.3327 3.37324 13.2242 3.37324L10.6746 3.37237C10.5661 3.37237 10.4784 3.2847 10.4784 3.17619V2.78471ZM9.54007 2.58853C9.75709 2.58853 9.93243 2.76388 9.93243 2.98088C9.93243 3.1979 9.75708 3.37324 9.54007 3.37324C9.32306 3.37324 9.14772 3.19789 9.14772 2.98088C9.14772 2.76387 9.32306 2.58853 9.54007 2.58853ZM11.949 20.8202C11.5158 20.8202 11.1642 20.4696 11.1642 20.0355C11.1642 19.6024 11.5149 19.2508 11.949 19.2508C12.3821 19.2508 12.7337 19.6024 12.7337 20.0355C12.7337 20.4687 12.383 20.8202 11.949 20.8202ZM16.9498 17.9825H7.04719V3.95919H16.9507L16.9498 17.9825ZM14.1296 14.5972L14.4681 14.7682L14.6652 14.3211L14.8891 14.7708L15.2155 14.5972L14.8952 14.1701L15.3839 14.1362L15.3362 13.7742L14.8006 13.9235L14.8596 13.3949H14.4829L14.5419 13.9235L14.0176 13.7742L13.9612 14.1336L14.4464 14.1709L14.1296 14.5972ZM8.87963 14.5972L9.21903 14.7682L9.41608 14.3211L9.64003 14.7708L9.96643 14.5972L9.64612 14.1701L10.1348 14.1362L10.0871 13.7742L9.55149 13.9235L9.61052 13.3949H9.23465L9.29368 13.9235L8.76937 13.7742L8.71294 14.1336L9.19819 14.1709L8.87963 14.5972ZM13.1087 13.394H12.7329L12.7919 13.9227L12.2676 13.7734L12.2112 14.1327L12.6964 14.1701L12.3787 14.5972L12.7172 14.7682L12.9143 14.3211L13.1382 14.7708L13.4646 14.5971L13.1443 14.1701L13.6322 14.1362L13.5844 13.7742L13.0488 13.9235L13.1087 13.394ZM10.6478 11.322H13.2521C13.3241 11.322 13.3857 11.2968 13.4361 11.2456C13.4864 11.1953 13.5125 11.1336 13.5125 11.0616V9.49909C13.5125 9.42704 13.4873 9.36541 13.4361 9.31506C13.3849 9.26472 13.3241 9.23868 13.2521 9.23868H11.2555L11.2547 8.3715C11.2547 8.17966 11.3224 8.01646 11.4578 7.88019C11.5932 7.74477 11.7573 7.67707 11.9491 7.67707C12.1409 7.67707 12.3041 7.74478 12.4404 7.88019C12.5758 8.01561 12.6435 8.17968 12.6435 8.3715C12.6435 8.41838 12.6609 8.45917 12.6947 8.4939C12.7295 8.52862 12.7703 8.54511 12.8171 8.54511H12.9908C13.0376 8.54511 13.0784 8.52775 13.1131 8.4939C13.147 8.46004 13.1644 8.41924 13.1644 8.3715C13.1644 8.03644 13.0454 7.75084 12.8076 7.51299C12.5697 7.27515 12.2841 7.15622 11.9491 7.15622C11.6149 7.15622 11.3284 7.27514 11.0906 7.51299C10.8527 7.75084 10.7338 8.03644 10.7338 8.3715V9.23954L10.6479 9.23867C10.5758 9.23867 10.5142 9.26385 10.4638 9.31506C10.4135 9.36541 10.3874 9.42704 10.3874 9.49909V11.0616C10.3874 11.1336 10.4126 11.1953 10.4638 11.2456C10.5133 11.2968 10.5749 11.322 10.6479 11.322L10.6478 11.322Z" fill="#67718E"/>
</svg>
