<svg width="24" height="24" viewBox="0 0 24 24" fill="none" xmlns="http://www.w3.org/2000/svg">
<path id="Vector" d="M5 9.70833V15.125C5 18.925 8.075 22 11.875 22C15.675 22 18.75 18.925 18.75 15.125V6.79167C18.75 6.21667 18.2833 5.75 17.7083 5.75C17.1333 5.75 16.6667 6.21667 16.6667 6.79167V12H15.8333V4.29167C15.8333 3.71667 15.3667 3.25 14.7917 3.25C14.2167 3.25 13.75 3.71667 13.75 4.29167V11.1667H12.9167V3.04167C12.9167 2.46667 12.45 2 11.875 2C11.3 2 10.8333 2.46667 10.8333 3.04167V11.1667H10V4.70833C10 4.13333 9.53333 3.66667 8.95833 3.66667C8.38333 3.66667 7.91667 4.13333 7.91667 4.70833V13.6917C9.55833 13.9 10.8333 15.3 10.8333 17H10C10 15.625 8.875 14.5 7.5 14.5H7.08333V9.70833C7.08333 9.13333 6.61667 8.66667 6.04167 8.66667C5.46667 8.66667 5 9.13333 5 9.70833Z" fill="#67718E"/>
</svg>
