<svg width="24" height="24" viewBox="0 0 24 24" fill="none" xmlns="http://www.w3.org/2000/svg">
<path d="M11.9349 21.259V18.2163H12.6751V21.259H13.7111V22.0001H10.8989V21.259H11.9349Z" fill="#67718E"/>
<path d="M11.933 17.7162C10.8452 17.5824 9.90289 16.8725 9.48106 15.8492C7.55446 15.8072 6 14.2273 6 12.291C6 11.0596 6.63079 9.92988 7.66388 9.28053C7.40218 8.84015 7.26547 8.34215 7.26547 7.82658C7.26547 6.45754 8.22142 5.30044 9.53281 5.02311C9.48106 4.80634 9.4547 4.58664 9.4547 4.36596C9.4547 2.78599 10.7397 1.5 12.3207 1.5C13.9016 1.5 15.1876 2.78609 15.1866 4.36796C15.1866 4.59061 15.1593 4.81323 15.1065 5.03294C16.4004 5.32216 17.3436 6.47624 17.3436 7.82765C17.3436 8.34322 17.2069 8.84025 16.9452 9.2816C17.9783 9.93096 18.6091 11.0607 18.6091 12.292C18.6091 14.2282 17.0555 15.8082 15.1289 15.8492C14.7071 16.8725 13.7648 17.5824 12.677 17.7162H11.933Z" fill="#67718E"/>
</svg>
