<svg width="24" height="24" viewBox="0 0 24 24" fill="none" xmlns="http://www.w3.org/2000/svg">
<path d="M12 2C6.48 2 2 6.48 2 12C2 17.52 6.48 22 12 22C17.52 22 22 17.52 22 12C22 6.48 17.52 2 12 2ZM11 19V17H13V19H11ZM14.17 12.17C13.45 12.9 13 13.5 13 15H11V14.5C11 13.4 11.45 12.4 12.17 11.67L13.41 10.41C13.78 10.05 14 9.54999 14 8.99999C14 7.89999 13.1 6.99999 12 6.99999C10.9 6.99999 10 7.89999 10 8.99999H8C8 6.78999 9.79 4.99999 12 4.99999C14.21 4.99999 16 6.78999 16 8.99999C16 9.87999 15.64 10.68 15.07 11.25L14.17 12.17Z" fill="#67718E"/>
</svg>
