<svg width="24" height="24" viewBox="0 0 24 24" fill="none" xmlns="http://www.w3.org/2000/svg">
<path d="M11.619 2C14.7714 2 17.3333 4.53333 17.3333 7.66667C17.3333 11.9143 11.619 18.1905 11.619 18.1905C11.619 18.1905 5.90476 11.9143 5.90476 7.66667C5.90476 4.53333 8.46667 2 11.619 2ZM11.619 5.80952C10.5671 5.80952 9.71429 6.66231 9.71429 7.71429C9.71429 8.76626 10.5671 9.61905 11.619 9.61905C12.671 9.61905 13.5238 8.76626 13.5238 7.71429C13.5238 6.66231 12.671 5.80952 11.619 5.80952ZM11.619 22C15.8286 22 19.2381 20.2952 19.2381 18.1905C19.2381 16.9619 18.0762 15.8667 16.2762 15.1714L15.6667 16.0381C16.6952 16.4667 17.3333 17.0571 17.3333 17.7143C17.3333 19.0286 14.7714 20.0952 11.619 20.0952C8.46667 20.0952 5.90476 19.0286 5.90476 17.7143C5.90476 17.0571 6.54286 16.4667 7.57143 16.0381L6.9619 15.1714C5.1619 15.8667 4 16.9619 4 18.1905C4 20.2952 7.40952 22 11.619 22Z" fill="#67718E"/>
</svg>
