<svg width="24" height="24" viewBox="0 0 24 24" fill="none" xmlns="http://www.w3.org/2000/svg">
  <path
    d="M5 4C5 5.66 6.34 7 8 7C9.66 7 11 5.66 11 4C11 2.34 9.66 1 8 1C6.34 1 5 2.34 5 4ZM8 5C8.55 5 9 4.55 9 4C9 3.45 8.55 3 8 3C7.45 3 7 3.45 7 4C7 4.55 7.45 5 8 5ZM2 15V13C2 13 2 9 8 9C14 9 14 13 14 13V15H2ZM22 13V15H16V13C16 13 16 11.31 14.85 9.8C14.68 9.57 14.47 9.35 14.25 9.14C14.77 9.06 15.34 9 16 9C22 9 22 13 22 13ZM4 13C4.06 12.56 4.5 11 8 11C11.5 11 11.94 12.56 12 13H4ZM17 19V17L20 20L17 23V21H7V23L4 20L7 17V19H17ZM13 4C13 2.34 14.34 1 16 1C17.66 1 19 2.34 19 4C19 5.66 17.66 7 16 7C14.34 7 13 5.66 13 4Z"
    fill="#67718E" />
</svg>
