<svg width="24" height="24" viewBox="0 0 24 24" fill="none" xmlns="http://www.w3.org/2000/svg">
<path id="Vector" d="M15.8 18.5L20.9114 19.8631C21.4096 19.9959 21.7168 20.4953 21.6105 20.9999C21.4961 21.5435 20.9492 21.8801 20.4123 21.7373L12 19.5L3.55214 21.7468C3.02669 21.8865 2.48763 21.573 2.34926 21.0472C2.21147 20.5236 2.52321 19.9871 3.04638 19.8476L8.1 18.5L2.94934 17.149C2.42516 17.0115 2.11186 16.4749 2.24977 15.9509C2.38786 15.4261 2.92582 15.1133 3.4502 15.2527L11.9 17.5L20.3479 15.2532C20.8733 15.1135 21.4124 15.427 21.5507 15.9528C21.6885 16.4764 21.3768 17.0129 20.8536 17.1524L15.8 18.5ZM18 8C18 9.63765 17.3378 11.027 16.3147 12.0927C16.1205 12.2949 16 12.5596 16 12.8399V14C16 14.5523 15.5523 15 15 15H9C8.44772 15 8 14.5523 8 14V12.8399C8 12.5596 7.87948 12.2949 7.68535 12.0927C6.66219 11.027 6 9.63765 6 8C6 6.4087 6.63214 4.88258 7.75736 3.75736C8.88258 2.63214 10.4087 2 12 2C13.5913 2 15.1174 2.63214 16.2426 3.75736C17.3679 4.88258 18 6.4087 18 8ZM11 7.5C11 6.7 10.3 6 9.5 6C8.7 6 8 6.7 8 7.5C8 8.3 8.7 9 9.5 9C10.3 9 11 8.3 11 7.5ZM12.5955 11C12.7813 11 12.9022 10.8044 12.8191 10.6382L12.2236 9.44721C12.1315 9.26295 11.8685 9.26295 11.7764 9.44721L11.1809 10.6382C11.0978 10.8044 11.2187 11 11.4045 11H12.5955ZM16 7.5C16 6.7 15.3 6 14.5 6C13.7 6 13 6.7 13 7.5C13 8.3 13.7 9 14.5 9C15.3 9 16 8.3 16 7.5Z" fill="#67718E"/>
</svg>
