<svg width="24" height="24" viewBox="0 0 24 24" fill="none" xmlns="http://www.w3.org/2000/svg">
<path d="M19 11.5C19 12.69 18.66 13.8 18.1 14.78L16.87 13.55C17.14 12.93 17.3 12.24 17.3 11.5H19ZM15 11.66L9 5.68V5.5C9 4.70435 9.31607 3.94129 9.87868 3.37868C10.4413 2.81607 11.2044 2.5 12 2.5C12.7956 2.5 13.5587 2.81607 14.1213 3.37868C14.6839 3.94129 15 4.70435 15 5.5V11.5V11.66ZM4.27 3.5L21 20.23L19.73 21.5L15.54 17.31C14.77 17.77 13.91 18.08 13 18.22V21.5H11V18.22C7.72 17.73 5 14.91 5 11.5H6.7C6.7 14.5 9.24 16.6 12 16.6C12.81 16.6 13.6 16.41 14.31 16.08L12.65 14.42L12 14.5C11.2044 14.5 10.4413 14.1839 9.87868 13.6213C9.31607 13.0587 9 12.2956 9 11.5V10.78L3 4.77L4.27 3.5Z" fill="#67718E"/>
</svg>
