<svg width="24" height="24" viewBox="0 0 24 24" fill="none" xmlns="http://www.w3.org/2000/svg">
<path d="M14.82 4H19C20.1046 4 21 4.89543 21 6V15.1152C20.6769 15.0496 20.3425 15.0151 20 15.0151C17.2386 15.0151 15 17.2537 15 20.0151C15 20.7204 15.146 21.3915 15.4095 22H5C3.89543 22 3 21.1046 3 20V6C3 4.89543 3.89543 4 5 4H9.18C9.6 2.84 10.7 2 12 2C13.3 2 14.4 2.84 14.82 4ZM12 18H14.5L18 13.5L14.5 9H12L15.5 13.5L12 18ZM6.5 18H9L12.5 13.5L9 9H6.5L10 13.5L6.5 18ZM13 5C13 4.44772 12.5523 4 12 4C11.4477 4 11 4.44772 11 5C11 5.55228 11.4477 6 12 6C12.5523 6 13 5.55228 13 5Z" fill="#67718E"/>
<path d="M19.8487 16.6692L16.6667 19.8512L19.8487 23.0332L20.9093 21.9725L19.6061 20.6692H22.9167V19.1692H19.47L20.9093 17.7299L19.8487 16.6692Z" fill="#67718E"/>
</svg>
