<svg width="24" height="24" viewBox="0 0 24 24" fill="none" xmlns="http://www.w3.org/2000/svg">
<path d="M4 21C2.89 21 2 20.1 2 19V5C2 3.89 2.89 3 4 3H5V1H7V3H15V1H17V3H18C19.1046 3 20 3.89543 20 5V11.1C21.24 12.36 22 14.09 22 16C22 19.866 18.866 23 15 23C13.09 23 11.36 22.24 10.1 21H4ZM4 8V19H8.67C8.24 18.09 8 17.07 8 16C8 12.134 11.134 9 15 9C16.07 9 17.09 9.24 18 9.67V8H4ZM15.5 13H14V16.69L17.19 18.53L17.94 17.23L15.5 15.82V13ZM10.15 16C10.15 18.68 12.32 20.85 15 20.85C16.2863 20.85 17.5199 20.339 18.4295 19.4295C19.339 18.5199 19.85 17.2863 19.85 16C19.85 13.32 17.68 11.15 15 11.15C12.3214 11.15 10.15 13.3214 10.15 16Z" fill="#67718E"/>
</svg>
