<svg width="24" height="24" viewBox="0 0 24 24" fill="none" xmlns="http://www.w3.org/2000/svg">
<path d="M14.752 3.82846L14.82 4H19C20.0544 4 20.9182 4.81588 20.9945 5.85074L21 6V20C21 21.0544 20.1841 21.9182 19.1493 21.9945L19 22H5C3.94564 22 3.08183 21.1841 3.00549 20.1493L3 20V6C3 4.94564 3.81588 4.08183 4.85074 4.00549L5 4H9.18C9.6 2.84 10.7 2 12 2C13.235 2 14.2895 2.7581 14.752 3.82846ZM12 6C12.5523 6 13 5.55228 13 5C13 4.44772 12.5523 4 12 4C11.4477 4 11 4.44772 11 5C11 5.55228 11.4477 6 12 6ZM14.4706 19V17.5714C14.4706 17.5714 14.4706 14.7143 10.2353 14.7143C6 14.7143 6 17.5714 6 17.5714V19H14.4706ZM11.9961 9.95235C11.7634 9.59996 11.4326 9.3253 11.0457 9.16312C10.6587 9.00093 10.2329 8.95849 9.82216 9.04118C9.41138 9.12386 9.03405 9.32795 8.73789 9.62763C8.44173 9.92731 8.24005 10.3091 8.15834 10.7248C8.07663 11.1405 8.11856 11.5713 8.27884 11.9629C8.43912 12.3544 8.71055 12.6891 9.05879 12.9246C9.40704 13.16 9.81646 13.2857 10.2353 13.2857C10.7969 13.2857 11.3356 13.0599 11.7327 12.6581C12.1298 12.2562 12.3529 11.7112 12.3529 11.1429C12.3529 10.719 12.2287 10.3047 11.9961 9.95235ZM15.5269 16.0349C15.745 16.5181 15.8659 17.0405 15.8824 17.5714V19H18V17.5714C18 17.5714 18 15.1071 14.6118 14.7571C14.9976 15.1174 15.3087 15.5517 15.5269 16.0349ZM13.1365 9.1C13.5494 9.69926 13.7709 10.4123 13.7709 11.1429C13.7709 11.8734 13.5494 12.5865 13.1365 13.1857C13.3395 13.2518 13.5514 13.2856 13.7647 13.2857C14.3263 13.2857 14.865 13.0599 15.2621 12.6581C15.6592 12.2562 15.8824 11.7112 15.8824 11.1429C15.8824 10.5745 15.6592 10.0295 15.2621 9.62763C14.865 9.22577 14.3263 9 13.7647 9C13.5514 9.00013 13.3395 9.03387 13.1365 9.1Z" fill="#67718E"/>
</svg>
