<svg width="24" height="24" viewBox="0 0 24 24" fill="none" xmlns="http://www.w3.org/2000/svg">
    <path
        d="M11.2444 4.68618C11.4968 4.43794 11.9032 4.43794 12.1556 4.68618L14.5066 6.99886C14.9179 7.40338 14.6297 8.1 14.0511 8.1H9.34893C8.77034 8.1 8.48212 7.40338 8.89335 6.99886L11.2444 4.68618Z"
        fill="black" />
    <path
        d="M11.7 7.5C12.0314 7.5 12.3 7.76863 12.3 8.1V13.1654L5.50361 19.344C5.25841 19.5669 4.87894 19.5488 4.65604 19.3036C4.43314 19.0584 4.45121 18.6789 4.6964 18.456L11.1 12.6346V8.1C11.1 7.76863 11.3686 7.5 11.7 7.5Z"
        fill="black" />
    <path
        d="M13.0516 13.7014C13.2717 13.4537 13.6509 13.4314 13.8986 13.6516L19.2986 18.4515C19.5463 18.6717 19.5686 19.0509 19.3484 19.2986C19.1283 19.5463 18.749 19.5686 18.5014 19.3484L13.1014 14.5484C12.8537 14.3283 12.8314 13.949 13.0516 13.7014Z"
        fill="black" />
</svg>
