<svg width="24" height="24" viewBox="0 0 24 24" fill="none" xmlns="http://www.w3.org/2000/svg">
<g id="Return">
<g id="Union">
<path d="M15 5H3V7L15 7C16.1 7 17.0417 7.39167 17.825 8.175C18.6083 8.95833 19 9.9 19 11C19 12.1 18.6083 13.0417 17.825 13.825C17.0417 14.6083 16.1 15 15 15H12.8L14.4 13.4L13 12L9 16L13 20L14.4 18.6L12.8 17H15C16.6667 17 18.0833 16.4167 19.25 15.25C20.4167 14.0833 21 12.6667 21 11C21 9.33333 20.4167 7.91667 19.25 6.75C18.0833 5.58333 16.6667 5 15 5Z" fill="#67718E"/>
<path d="M7 16C7 17.1046 6.10457 18 5 18C3.89543 18 3 17.1046 3 16C3 14.8954 3.89543 14 5 14C6.10457 14 7 14.8954 7 16Z" fill="#67718E"/>
</g>
</g>
</svg>
