<svg width="24" height="24" viewBox="0 0 24 24" fill="none" xmlns="http://www.w3.org/2000/svg">
  <path
    d="M8.77205 5.44967L18.5376 8.70487L16.9366 15.1091L16.0634 14.8909L17.1694 10.467L10.8182 16.8182L10.1818 16.1818L16.533 9.8306L6.74193 12.2784C6.1203 12.4338 5.60265 11.7885 5.88921 11.2153L8.77205 5.44967ZM16.3917 8.93823L6.84005 11.3261L9.22795 6.55033L16.3917 8.93823Z"
    fill="black" />
  <path
    d="M7.5 12C7.5 12.8284 6.82843 13.5 6 13.5C5.17157 13.5 4.5 12.8284 4.5 12C4.5 11.1716 5.17157 10.5 6 10.5C6.82843 10.5 7.5 11.1716 7.5 12Z"
    fill="black" />
  <path
    d="M18 15C18 15.8284 17.3284 16.5 16.5 16.5C15.6716 16.5 15 15.8284 15 15C15 14.1716 15.6716 13.5 16.5 13.5C17.3284 13.5 18 14.1716 18 15Z"
    fill="black" />
  <path
    d="M12 16.5C12 17.3284 11.3284 18 10.5 18C9.67157 18 9 17.3284 9 16.5C9 15.6716 9.67157 15 10.5 15C11.3284 15 12 15.6716 12 16.5Z"
    fill="black" />
  <path
    d="M19.5 9C19.5 9.82843 18.8284 10.5 18 10.5C17.1716 10.5 16.5 9.82843 16.5 9C16.5 8.17157 17.1716 7.5 18 7.5C18.8284 7.5 19.5 8.17157 19.5 9Z"
    fill="black" />
  <path
    d="M10.5 6C10.5 6.82843 9.82843 7.5 9 7.5C8.17157 7.5 7.5 6.82843 7.5 6C7.5 5.17157 8.17157 4.5 9 4.5C9.82843 4.5 10.5 5.17157 10.5 6Z"
    fill="black" />
</svg>
