<svg width="24" height="24" viewBox="0 0 24 24" fill="none" xmlns="http://www.w3.org/2000/svg">
<path d="M2 4C2 3.44772 2.44772 3 3 3H21C21.5523 3 22 3.44772 22 4C22 4.55228 21.5523 5 21 5H3C2.44772 5 2 4.55228 2 4Z" fill="#67718E"/>
<path d="M20 6H4V18H20V6ZM8 8H10V11.1795L12.001 13.1805L14 11.1816V8H16V11.99L16.01 12L12.0016 16.0084H12.0005L7.99207 12L8 11.9921V8Z" fill="#67718E"/>
<path d="M3 19C2.44772 19 2 19.4477 2 20C2 20.5523 2.44772 21 3 21H21C21.5523 21 22 20.5523 22 20C22 19.4477 21.5523 19 21 19H3Z" fill="#67718E"/>
</svg>
