<svg width="24" height="24" viewBox="0 0 24 24" fill="none" xmlns="http://www.w3.org/2000/svg">
  <path d="M20 13.3414V7.5C20 7.12 19.79 6.79 19.47 6.62L11.57 2.18C11.41 2.06 11.21 2 11 2C10.79 2 10.59 2.06 10.43 2.18L2.53 6.62C2.21 6.79 2 7.12 2 7.5V16.5C2 16.88 2.21 17.21 2.53 17.38L10.43 21.82C10.59 21.94 10.79 22 11 22C11.21 22 11.41 21.94 11.57 21.82L12 21.5783V12.58L18 9.21V13C18.7013 13 19.3744 13.1203 20 13.3414ZM9.11 5.22L11 4.15L16.96 7.5L15 8.61L9.11 5.22ZM11 10.85L5.04 7.5L7.08 6.35L12.96 9.75L11 10.85ZM10 19.29L4 15.91V9.21L10 12.58V19.29Z" fill="#67718E"/>
  <path d="M18 14L14 18L15.3333 19.3333L16.9717 17.695V21.8567H18.8573V17.5239L20.6667 19.3333L22 18L18 14Z" fill="#67718E"/>
</svg>
