<svg width="24" height="24" viewBox="0 0 24 24" fill="none" xmlns="http://www.w3.org/2000/svg">
<path d="M13.8333 8.4H19.3333V10.2H13.8333V8.4Z" fill="#67718E"/>
<path d="M13.8333 12H19.3333V13.8H13.8333V12Z" fill="#67718E"/>
<path d="M13.8333 15.6H19.3333V17.4H13.8333V15.6Z" fill="#67718E"/>
<path d="M13.8333 4.8H21.1667C21.6529 4.8 22.1192 4.98964 22.463 5.32721C22.8068 5.66477 23 6.12261 23 6.6V19.2C23 19.6774 22.8068 20.1352 22.463 20.4728C22.1192 20.8104 21.6529 21 21.1667 21H2.83333C2.3471 21 1.88079 20.8104 1.53697 20.4728C1.19315 20.1352 1 19.6774 1 19.2V6.6C1 6.12261 1.19315 5.66477 1.53697 5.32721C1.88079 4.98964 2.3471 4.8 2.83333 4.8H10.1667V6.6H2.83333V19.2H21.1667V6.6H13.8333V4.8Z" fill="#67718E"/>
<path d="M11.0833 6.6H12.9167V3H11.0833V6.6Z" fill="#67718E"/>
<path d="M7.6 13.9115V16.3821H5.35V13.088H4L8.5 9.38213L13 13.088H11.65V16.3821H9.4V13.9115H7.6Z" fill="#67718E"/>
</svg>
