<svg width="24" height="24" viewBox="0 0 24 24" fill="none" xmlns="http://www.w3.org/2000/svg">
<path d="M4 7C4 4.79 7.58 3 12 3C16.42 3 20 4.79 20 7C20 9.21 16.42 11 12 11C7.58 11 4 9.21 4 7Z" fill="#67718E"/>
<path d="M4 12V9C4 11.21 7.58 13 12 13C12.9462 13 13.8538 12.918 14.6961 12.7674C13.4992 13.478 12.5949 14.6298 12.2074 15.9987C12.1385 15.9996 12.0693 16 12 16C7.58 16 4 14.21 4 12Z" fill="#67718E"/>
<path d="M12.0224 18C12.1228 19.1135 12.555 20.1314 13.2195 20.9539C12.8219 20.9842 12.4146 21 12 21C7.58 21 4 19.21 4 17V14C4 16.21 7.58 18 12 18C12.0075 18 12.0149 18 12.0224 18Z" fill="#67718E"/>
<path d="M19.9221 12.5607C19.1913 12.2016 18.3692 12 17.5 12C17.4275 12 17.3553 12.0014 17.2835 12.0042C18.9493 11.2713 20 10.1973 20 9V12C20 12.1903 19.9735 12.3775 19.9221 12.5607Z" fill="#67718E"/>
<path d="M20 20H18.1397L16.2206 16.4776H16.1912C16.1912 16.4776 16.1936 16.5196 16.1985 16.6036C16.2083 16.683 16.2157 16.788 16.2206 16.9188C16.2304 17.0495 16.2377 17.1895 16.2426 17.3389C16.2525 17.4837 16.2574 17.619 16.2574 17.7451V20H15V15H16.8529L18.7647 18.4734H18.7868C18.7868 18.4734 18.7843 18.4337 18.7794 18.3543C18.7745 18.275 18.7672 18.1723 18.7574 18.0462C18.7525 17.9202 18.7475 17.7871 18.7426 17.6471C18.7377 17.507 18.7353 17.3786 18.7353 17.2619V15H20V20Z" fill="#67718E"/>
</svg>
