<svg width="24" height="24" viewBox="0 0 24 24" fill="none" xmlns="http://www.w3.org/2000/svg">
<path d="M3.90476 2C2.84762 2 2 2.84762 2 3.90476V19.1429C2 19.648 2.20068 20.1325 2.55789 20.4897C2.9151 20.8469 3.39959 21.0476 3.90476 21.0476H11.9143C12.947 21.6682 14.1285 21.9973 15.3333 22C17.1014 22 18.7971 21.2976 20.0474 20.0474C21.2976 18.7971 22 17.1014 22 15.3333C21.9983 13.899 21.5341 12.5034 20.6762 11.3539C19.8184 10.2044 18.6126 9.36219 17.2381 8.95238V7.71429L11.5238 2H3.90476ZM10.5714 3.42857L15.8095 8.66667H10.5714V3.42857ZM15.3333 10.5714C16.5963 10.5714 17.8075 11.0731 18.7005 11.9662C19.5935 12.8592 20.0952 14.0704 20.0952 15.3333C20.0952 16.5963 19.5935 17.8075 18.7005 18.7005C17.8075 19.5935 16.5963 20.0952 15.3333 20.0952C14.0704 20.0952 12.8592 19.5935 11.9662 18.7005C11.0731 17.8075 10.5714 16.5963 10.5714 15.3333C10.5714 14.0704 11.0731 12.8592 11.9662 11.9662C12.8592 11.0731 14.0704 10.5714 15.3333 10.5714ZM14.381 11.5238V16.2857L17.819 18.3429L18.5333 17.181L15.8095 15.5714V11.5238H14.381Z" fill="black"/>
</svg>
