<svg width="24" height="24" viewBox="0 0 24 24" fill="none" xmlns="http://www.w3.org/2000/svg">
<path d="M13.6667 12C13.6667 12.9205 12.9205 13.6667 12 13.6667C11.0795 13.6667 10.3333 12.9205 10.3333 12C10.3333 11.0795 11.0795 10.3333 12 10.3333C12.9205 10.3333 13.6667 11.0795 13.6667 12Z" fill="#67718E"/>
<path d="M11.1667 3.70781C7.22965 4.0987 4.0987 7.22965 3.70781 11.1667H2V12.8333H3.70781C4.0987 16.7703 7.22965 19.9013 11.1667 20.2922V22H12.8333V20.2922C16.7703 19.9013 19.9013 16.7703 20.2922 12.8333H22V11.1667H20.2922C19.9013 7.22965 16.7703 4.0987 12.8333 3.70781V2H11.1667V3.70781ZM12.8333 7V5.38491C15.8489 5.76095 18.239 8.15107 18.6151 11.1667H17V12.8333H18.6151C18.239 15.8489 15.8489 18.239 12.8333 18.6151V17H11.1667V18.6151C8.15107 18.239 5.76095 15.8489 5.38491 12.8333H7V11.1667H5.38491C5.76095 8.15107 8.15107 5.76095 11.1667 5.38491V7H12.8333Z" fill="#67718E"/>
</svg>
