<svg width="24" height="24" viewBox="0 0 24 24" fill="none" xmlns="http://www.w3.org/2000/svg">
<path d="M15.2002 16.7978V11.999H16.7998V16.7978H15.2002Z" fill="#67718E"/>
<path d="M15.2002 19.997V18.3974H16.7998V19.997H15.2002Z" fill="#67718E"/>
<path d="M8 13C3.58 13 0 14.79 0 17V19H10.3482L14.8723 23.5241C15.4961 24.156 16.5039 24.156 17.1277 23.5241L23.5261 17.1257C24.158 16.5019 24.158 15.4941 23.5261 14.8703L17.1277 8.47188C16.7998 8.15196 16.3999 8 16 8C15.6001 8 15.2002 8.15196 14.8723 8.47188L10.1923 13.1519C9.49566 13.053 8.76025 13 8 13ZM9.6016 15.998L16 9.5996L22.3984 15.998L16 22.3964L9.6016 15.998Z" fill="#67718E"/>
<path d="M4 7C4 8.06087 4.42143 9.07828 5.17157 9.82843C5.92172 10.5786 6.93913 11 8 11C9.06087 11 10.0783 10.5786 10.8284 9.82843C11.5786 9.07828 12 8.06087 12 7H4Z" fill="#67718E"/>
<path d="M7.5 0C7.2 0 7 0.21 7 0.5V3.5H6V1C6 1 3.75 1.86 3.75 4.75C3.75 4.75 3 4.89 3 6H13C12.95 4.89 12.25 4.75 12.25 4.75C12.25 1.86 10 1 10 1V3.5H9V0.5C9 0.21 8.81 0 8.5 0H7.5Z" fill="#67718E"/>
</svg>
