<svg width="24" height="24" viewBox="0 0 24 24" fill="none" xmlns="http://www.w3.org/2000/svg">
<path d="M3.68421 12.2368L4.31579 13.5H5.15789V15.9737H6.84211C6.84211 17.3689 7.97318 18.5 9.36842 18.5C10.7637 18.5 11.8947 17.3689 11.8947 15.9737H15.2632C15.2632 17.3689 16.3942 18.5 17.7895 18.5C19.1847 18.5 20.3158 17.3689 20.3158 15.9737H22V12.2368L19.4737 8.86842H16.9474V5.5H6.84211C5.91194 5.5 5.15789 6.25405 5.15789 7.18421H2L2.72421 8.44737H8.90526L9.41053 9.71053H2.84211L3.47368 10.9737H7.6L8.10526 12.2368H3.68421ZM19.0526 15.9737C19.0526 16.6713 18.4871 17.2368 17.7895 17.2368C17.0919 17.2368 16.5263 16.6713 16.5263 15.9737C16.5263 15.2761 17.0919 14.7105 17.7895 14.7105C18.4871 14.7105 19.0526 15.2761 19.0526 15.9737ZM19.0526 10.1316L20.7032 12.2368H16.9474V10.1316H19.0526ZM10.6316 15.9737C10.6316 16.6713 10.066 17.2368 9.36842 17.2368C8.6708 17.2368 8.10526 16.6713 8.10526 15.9737C8.10526 15.2761 8.6708 14.7105 9.36842 14.7105C10.066 14.7105 10.6316 15.2761 10.6316 15.9737Z" fill="#67718E"/>
</svg>
