<svg width="24" height="24" viewBox="0 0 24 24" fill="none" xmlns="http://www.w3.org/2000/svg">
<path d="M14.3571 9.30973C14.9822 9.93485 15.3334 10.7827 15.3334 11.6667C15.3334 12.5508 14.9822 13.3986 14.3571 14.0238C13.732 14.6489 12.8841 15.0001 12.0001 15.0001C11.116 15.0001 10.2682 14.6489 9.64306 14.0238C9.01794 13.3986 8.66675 12.5508 8.66675 11.6667C8.66675 10.7827 9.01794 9.93485 9.64306 9.30973C10.2682 8.6846 11.116 8.33341 12.0001 8.33341C12.8841 8.33341 13.732 8.6846 14.3571 9.30973Z" fill="#67718E"/>
<path d="M12 22C17.5228 22 22 17.5228 22 12C22 6.47715 17.5228 2 12 2C6.47715 2 2 6.47715 2 12C2 17.5228 6.47715 22 12 22ZM8.41342 17.3134L5.45342 12.0467C5.37342 11.9401 5.33342 11.8067 5.33342 11.6667C5.33342 11.5267 5.37342 11.3934 5.45342 11.2867L8.41342 6.02008C8.52675 5.80675 8.74675 5.66675 9.00008 5.66675L15.0001 5.66675C15.2534 5.66675 15.4734 5.80675 15.5867 6.02008L18.5467 11.2867C18.6267 11.3934 18.6667 11.5267 18.6667 11.6667C18.6667 11.8067 18.6267 11.9401 18.5467 12.0467L15.5867 17.3134C15.4734 17.5267 15.2534 17.6667 15.0001 17.6667H9.00008C8.74675 17.6667 8.52675 17.5267 8.41342 17.3134Z" fill="#67718E"/>
</svg>
