<svg width="24" height="24" viewBox="0 0 24 24" fill="none" xmlns="http://www.w3.org/2000/svg">
<path d="M20.5222 6.7L20.5333 6.68889L16.4 2.55556L15.2222 3.73333L17.5667 6.07778C16.5222 6.47778 15.7778 7.47778 15.7778 8.66667C15.7778 10.2 17.0222 11.4444 18.5556 11.4444C18.9556 11.4444 19.3222 11.3556 19.6667 11.2111V19.2222C19.6667 19.8333 19.1667 20.3333 18.5556 20.3333C17.9444 20.3333 17.4444 19.8333 17.4444 19.2222V14.2222C17.4444 13 16.4444 12 15.2222 12H14.1111V4.22222C14.1111 3 13.1111 2 11.8889 2H5.22222C4 2 3 3 3 4.22222V22H14.1111V13.6667H15.7778V19.2222C15.7778 20.7556 17.0222 22 18.5556 22C20.0889 22 21.3333 20.7556 21.3333 19.2222V8.66667C21.3333 7.9 21.0222 7.2 20.5222 6.7ZM11.8889 9.77778H5.22222V4.22222H11.8889V9.77778ZM17.4444 8.66667C17.4444 8.05556 17.9444 7.55556 18.5556 7.55556C19.1667 7.55556 19.6667 8.05556 19.6667 8.66667C19.6667 9.27778 19.1667 9.77778 18.5556 9.77778C17.9444 9.77778 17.4444 9.27778 17.4444 8.66667Z" fill="#67718E"/>
</svg>
