<svg width="24" height="24" viewBox="0 0 24 24" fill="none" xmlns="http://www.w3.org/2000/svg">
<path d="M14.9167 8.91667C14.9167 7.30584 13.6108 6 12 6C10.3892 6 9.08333 7.30584 9.08333 8.91667C9.08333 10.5275 10.3892 11.8333 12 11.8333C13.6108 11.8333 14.9167 10.5275 14.9167 8.91667ZM7.44167 8.43333C7.06667 8.20833 6.63333 8.08333 6.16667 8.08333C4.78595 8.08333 3.66667 9.20262 3.66667 10.5833C3.66667 11.964 4.78595 13.0833 6.16667 13.0833C7.13333 13.0833 7.96667 12.5333 8.38333 11.7333C7.66667 10.8083 7.31667 9.625 7.44167 8.43333ZM17.8333 8.08333C19.214 8.08333 20.3333 9.20262 20.3333 10.5833C20.3333 11.964 19.214 13.0833 17.8333 13.0833C16.8667 13.0833 16.0333 12.5333 15.6167 11.7333C16.3333 10.8083 16.6833 9.625 16.5583 8.43333C16.9333 8.20833 17.3667 8.08333 17.8333 8.08333ZM12 13.5C9.00833 13.5 6.58333 14.9 6.58333 16.625V18.0833H17.4167V16.625C17.4167 14.9 14.9917 13.5 12 13.5ZM2 18.0833V16.8333C2 15.675 3.575 14.7 5.70833 14.4167C5.21667 14.9833 4.91667 15.7667 4.91667 16.625V18.0833H2ZM19.0833 18.0833H22V16.8333C22 15.675 20.425 14.7 18.2917 14.4167C18.7833 14.9833 19.0833 15.7667 19.0833 16.625V18.0833Z" fill="#67718E"/>
</svg>
