<svg width="24" height="24" viewBox="0 0 24 24" fill="none" xmlns="http://www.w3.org/2000/svg">
<path d="M22 10.3405V13.6649L19.5255 14.7054C19.4401 14.9402 19.3441 15.1697 19.2428 15.3938L20.2508 17.8911L17.9041 20.2444L15.4081 19.2358C15.1841 19.3426 14.9548 19.4333 14.7201 19.5187L13.6641 22H10.3414L9.28539 19.524C9.05607 19.444 8.83205 19.3532 8.61872 19.2519L6.10136 20.2444L3.76002 17.9018L4.75202 15.3831C4.65602 15.175 4.56536 14.9615 4.48536 14.7374L2 13.6595V10.3512L4.49068 9.26793C4.57068 9.04914 4.66135 8.83035 4.75735 8.62224L3.76535 6.10354L6.10669 3.76096L8.62404 4.75349C8.83204 4.65744 9.04539 4.56672 9.26939 4.48668L10.3467 2H13.6533L14.736 4.48132C14.9653 4.5667 15.184 4.65741 15.4026 4.7588L17.8986 3.75026L20.2453 6.10353L19.2373 8.60086C19.344 8.82498 19.4347 9.05443 19.52 9.28922L22 10.3405ZM8.93888 13.6545L10.3522 15.0686L13.0029 12.4218V8.00342H11.0029V11.5894L8.93888 13.6545Z" fill="#67718E"/>
</svg>
