<svg width="24" height="24" viewBox="0 0 24 24" fill="none" xmlns="http://www.w3.org/2000/svg">
<path d="M8.66667 9.6C9.10869 9.6 9.53262 9.76857 9.84518 10.0686C10.1577 10.3687 10.3333 10.7757 10.3333 11.2C10.3333 11.6243 10.1577 12.0313 9.84518 12.3314C9.53262 12.6314 9.10869 12.8 8.66667 12.8C8.22464 12.8 7.80072 12.6314 7.48816 12.3314C7.17559 12.0313 7 11.6243 7 11.2C7 10.7757 7.17559 10.3687 7.48816 10.0686C7.80072 9.76857 8.22464 9.6 8.66667 9.6V9.6ZM12 16H5.33333V15.2C5.33333 14.136 7.55833 13.6 8.66667 13.6C9.775 13.6 12 14.136 12 15.2V16ZM18.6667 8.8H13.6667V10.4H18.6667V8.8ZM18.6667 12H13.6667V13.6H18.6667V12ZM18.6667 15.2H13.6667V16.8H18.6667V15.2ZM20.3333 5.6H13.6667V7.2H20.3333V18.4H3.66667V7.2H10.3333V5.6H3.66667C3.22464 5.6 2.80072 5.76857 2.48816 6.06863C2.17559 6.36869 2 6.77565 2 7.2L2 18.4C2 18.8243 2.17559 19.2313 2.48816 19.5314C2.80072 19.8314 3.22464 20 3.66667 20H20.3333C20.7754 20 21.1993 19.8314 21.5118 19.5314C21.8244 19.2313 22 18.8243 22 18.4V7.2C22 6.77565 21.8244 6.36869 21.5118 6.06863C21.1993 5.76857 20.7754 5.6 20.3333 5.6V5.6ZM12.8333 7.2H11.1667V4H12.8333V7.2Z" fill="#67718E"/>
</svg>
