<svg width="24" height="24" viewBox="0 0 24 24" fill="none" xmlns="http://www.w3.org/2000/svg">
<path d="M7.2002 9.7978V4.999H8.7998V9.7978H7.2002Z" fill="#67718E"/>
<path d="M7.2002 12.997V11.3974H8.7998V12.997H7.2002Z" fill="#67718E"/>
<path d="M6.87228 1.47188C7.2002 1.15196 7.6001 1 8 1C8.3999 1 8.7998 1.15196 9.12772 1.47188L15.5261 7.87028C15.7117 8.05355 15.8428 8.26994 15.9194 8.5H18.5455V12.5863H21.2727L24 16.2227V20.7681H22.1818C22.1818 22.2744 20.9608 23.4954 19.4545 23.4954C17.9483 23.4954 16.7273 22.2744 16.7273 20.7681H11.2727C11.2727 22.2744 10.0517 23.4954 8.54545 23.4954C7.03922 23.4954 5.81818 22.2744 5.81818 20.7681H4V13.6518L0.473882 10.1257C-0.157961 9.50187 -0.157961 8.49413 0.473882 7.87028L6.87228 1.47188ZM14.3984 8.99801L8 2.5996L1.6016 8.998L7.99999 15.3964L14.3984 8.99801ZM20.8182 13.95H18.5455V16.2227H22.6091L20.8182 13.95ZM8.54545 19.4045C7.79234 19.4045 7.18182 20.015 7.18182 20.7681C7.18182 21.5212 7.79234 22.1318 8.54545 22.1318C9.29857 22.1318 9.90909 21.5212 9.90909 20.7681C9.90909 20.015 9.29857 19.4045 8.54545 19.4045ZM20.8182 20.7681C20.8182 20.015 20.2077 19.4045 19.4545 19.4045C18.7014 19.4045 18.0909 20.015 18.0909 20.7681C18.0909 21.5212 18.7014 22.1318 19.4545 22.1318C20.2077 22.1318 20.8182 21.5212 20.8182 20.7681Z" fill="#67718E"/>
</svg>
