<svg width="24" height="24" viewBox="0 0 24 24" fill="none" xmlns="http://www.w3.org/2000/svg">
<path d="M11.4 2.2C11.6 2.1 11.8 2 12 2C12.2 2 12.4 2.1 12.6 2.2L20.5 6.6C20.8 6.8 21 7.1 21 7.5V13.3C20.4 13.1 19.7 13 19 13V9.2L13 12.6V19.3C13.1 20 13.2 20.7 13.5 21.3L12.6 21.8C12.4 21.9 12.2 22 12 22C11.8 22 11.6 21.9 11.4 21.8L3.5 17.4C3.2 17.2 3 16.9 3 16.5V7.5C3 7.1 3.2 6.8 3.5 6.6L11.4 2.2ZM18 7.5L12 4.2L10.1 5.2L16 8.6L18 7.5ZM14 9.8L8.1 6.3L6 7.5L12 10.9L14 9.8ZM11 12.6L5 9.2V15.9L11 19.3V12.6Z" fill="#67718E"/>
<path d="M15 18.5638L18.5638 22.1277L19.7518 20.9397L18.2921 19.48H22V17.8H18.1397L19.7518 16.1879L18.5638 15L15 18.5638Z" fill="#67718E"/>
</svg>
