<svg width="24" height="24" viewBox="0 0 24 24" fill="none" xmlns="http://www.w3.org/2000/svg">
<path d="M10.675 14H7V12H12.125C11.825 12.2833 11.5542 12.5917 11.3125 12.925C11.0708 13.2583 10.8583 13.6167 10.675 14Z" fill="#67718E"/>
<path d="M10.075 18H7V16H10.075C10.025 16.3333 10 16.6667 10 17C10 17.3333 10.025 17.6667 10.075 18Z" fill="#67718E"/>
<path d="M3.5875 21.4125C3.97917 21.8042 4.45 22 5 22H12.125C11.825 21.7167 11.5542 21.4083 11.3125 21.075C11.0708 20.7417 10.8583 20.3833 10.675 20H5V4H12V9H17V10C17.35 10 17.6917 10.025 18.025 10.075C18.3583 10.125 18.6833 10.2 19 10.3V8L13 2H5C4.45 2 3.97917 2.19583 3.5875 2.5875C3.19583 2.97917 3 3.45 3 4V20C3 20.55 3.19583 21.0208 3.5875 21.4125Z" fill="#67718E"/>
<path d="M15.0866 12.3806C14.48 12.6319 13.9288 13.0002 13.4645 13.4645C12.5268 14.4021 12 15.6739 12 17C12 18.3261 12.5268 19.5979 13.4645 20.5355C13.9288 20.9998 14.48 21.3681 15.0866 21.6194C15.6932 21.8707 16.3434 22 17 22C18.3261 22 19.5979 21.4732 20.5355 20.5355C21.4732 19.5979 22 18.3261 22 17C22 16.3434 21.8707 15.6932 21.6194 15.0866C21.3681 14.48 20.9998 13.9288 20.5355 13.4645C20.0712 13.0002 19.52 12.6319 18.9134 12.3806C18.3068 12.1293 17.6566 12 17 12C16.3434 12 15.6932 12.1293 15.0866 12.3806ZM16.5 18.5H17.5V19.5H16.5V18.5ZM16.5 17.5V14.5H17.5V17.5H16.5Z" fill="#67718E"/>
</svg>
