<svg width="24" height="24" viewBox="0 0 24 24" fill="none" xmlns="http://www.w3.org/2000/svg">
<path d="M4.23252 11.675C4.17758 11.2042 4.14616 10.7086 4.14616 10.1908C4.1472 8.2589 4.32491 2.38177 12.2394 2.01701C12.4913 2.00551 12.7401 2 12.9836 2C18.1759 2 21.5192 4.58938 21.5192 8.80436C21.5192 9.1368 21.2495 9.17547 20.917 9.17547H16.3676C14.8685 9.17547 14.7065 10.3285 14.7065 10.824C14.7065 13.0463 14.0856 14.7169 12.8805 15.8027C12.3256 13.0626 9.90369 11 7 11C6.00182 11 5.06057 11.2438 4.23252 11.675Z" fill="#67718E"/>
<path d="M10.6059 21.796C11.8465 20.8618 12.713 19.4574 12.9406 17.8476L15.0575 21.4783C15 21.7209 14.7983 21.909 14.5411 21.9383C14.4867 21.9446 13.9703 22 13.1842 22C12.4902 22 11.586 21.9564 10.6059 21.796Z" fill="#67718E"/>
<path d="M15.7767 10.8239C15.7767 13.2252 15.1129 15.1027 13.8062 16.4042C13.7079 16.5014 13.6055 16.5943 13.502 16.6842L15.6952 20.4466H17.6846C18.9578 20.4466 19.9927 19.4117 19.9927 18.1384V15.916H21.3977C21.6089 15.916 21.8054 15.8052 21.9141 15.6233C22.0239 15.4414 22.0281 15.2156 21.9288 15.0295L19.9927 11.4145V10.2458H16.3674C15.9994 10.2458 15.7767 10.2845 15.7767 10.8239ZM18.6254 12.0001C18.6254 12.3691 18.3265 12.668 17.9574 12.668C17.5884 12.668 17.2894 12.3691 17.2894 12.0001C17.2894 11.631 17.5884 11.3321 17.9574 11.3321C18.3265 11.3321 18.6254 11.631 18.6254 12.0001Z" fill="#67718E"/>
<path d="M4 21.0019V16H2.09995C2.56267 13.7186 4.57743 12 6.995 12C9.76 12 12 14.24 12 17C12 19.76 9.76 22 6.995 22C5.87113 22 4.83431 21.6286 4 21.0019ZM6.39394 17.303L9.17803 18.9735L9.57576 18.3212L7.18939 16.9053V14.1212H6.39394V17.303Z" fill="#67718E"/>
<path d="M3 17H2V20H3V17Z" fill="#67718E"/>
<path d="M3 21H2V22H3V21Z" fill="#67718E"/>
</svg>
