<svg width="24" height="24" viewBox="0 0 24 24" fill="none" xmlns="http://www.w3.org/2000/svg">
<path d="M8.72861 10.8894C8.72861 9.69663 9.69663 8.72861 10.8894 8.72861C12.0821 8.72861 13.0501 9.69663 13.0501 10.8894C13.0501 12.0821 12.0821 13.0501 10.8894 13.0501C9.69663 13.0501 8.72861 12.0821 8.72861 10.8894Z" fill="#67718E"/>
<path d="M3 5L12 1L21 5V11C21 16.55 17.16 21.74 12 23C6.84 21.74 3 16.55 3 11V5ZM14.7787 10.8894C14.7787 8.72861 13.0501 7 10.8894 7C8.72861 7 7 8.72861 7 10.8894C7 13.0501 8.72861 14.7787 10.8894 14.7787C11.65 14.7787 12.3587 14.5627 12.9637 14.1824L15.7813 17L17 15.7813L14.1824 12.9637C14.5627 12.3587 14.7787 11.65 14.7787 10.8894Z" fill="#67718E"/>
</svg>
