<svg width="24" height="24" viewBox="0 0 24 24" fill="none" xmlns="http://www.w3.org/2000/svg">
<path d="M16.5455 12C16.5455 14.5104 14.5104 16.5455 12 16.5455C9.48961 16.5455 7.45455 14.5104 7.45455 12C7.45455 9.48961 9.48961 7.45455 12 7.45455C14.5104 7.45455 16.5455 9.48961 16.5455 12Z" fill="#0072F5"/>
<path d="M12 2C6.48 2 2 6.48 2 12C2 17.52 6.48 22 12 22C17.52 22 22 17.52 22 12C22 6.48 17.52 2 12 2ZM12 20C7.58 20 4 16.42 4 12C4 7.58 7.58 4 12 4C16.42 4 20 7.58 20 12C20 16.42 16.42 20 12 20Z" fill="#0072F5"/>
</svg>
